<?xml version="1.0" encoding="UTF-8"?>
<svg version="1.1" xmlns="http://www.w3.org/2000/svg" width="465" height="360">
<path d="M0 0 C10.23 0 20.46 0 31 0 C31 32.67 31 65.34 31 99 C49.48 99 67.96 99 87 99 C87 66.33 87 33.66 87 0 C97.23 0 107.46 0 118 0 C118 32.67 118 65.34 118 99 C137.83492831 98.48860221 137.83492831 98.48860221 157.66503906 97.82885742 C174.26357996 97.46429488 186.01802243 99.28156268 199.07507324 110.38174438 C201.92354834 112.77641255 204.94996872 114.87063372 208 117 C205.17718331 120.00692236 202.32519579 122.23383623 198.83203125 124.41796875 C197.85685547 125.03220703 196.88167969 125.64644531 195.87695312 126.27929688 C194.86568359 126.90900391 193.85441406 127.53871094 192.8125 128.1875 C190.79754466 129.45081478 188.78318806 130.71508521 186.76953125 131.98046875 C185.87854736 132.53629639 184.98756348 133.09212402 184.06958008 133.66479492 C182.09219677 134.83752306 182.09219677 134.83752306 181 136 C160.21 136 139.42 136 118 136 C118 189.13 118 242.26 118 297 C107.77 297 97.54 297 87 297 C87 243.87 87 190.74 87 136 C68.52 136 50.04 136 31 136 C31 189.13 31 242.26 31 297 C20.77 297 10.54 297 0 297 C0 243.87 0 190.74 0 136 C-44.88 136 -89.76 136 -136 136 C-136 147.88 -136 159.76 -136 172 C-98.71 172 -61.42 172 -23 172 C-23 213.25 -23 254.5 -23 297 C-89.33 297 -155.66 297 -224 297 C-222.44447428 293.88894856 -221.40577141 292.12362479 -219.1796875 289.65234375 C-218.37724609 288.74452148 -218.37724609 288.74452148 -217.55859375 287.81835938 C-216.43077947 286.55839981 -215.30054421 285.30060336 -214.16796875 284.04492188 C-213.63558594 283.44099609 -213.10320312 282.83707031 -212.5546875 282.21484375 C-212.06468262 281.66948975 -211.57467773 281.12413574 -211.06982422 280.56225586 C-209.71749397 278.90303431 -209.71749397 278.90303431 -210 276 C-211.29509377 274.22984814 -211.29509377 274.22984814 -213.0625 272.49609375 C-214.00996094 271.50899414 -214.00996094 271.50899414 -214.9765625 270.50195312 C-215.64429688 269.82068359 -216.31203125 269.13941406 -217 268.4375 C-218.3168868 267.08629279 -219.6296206 265.73102141 -220.9375 264.37109375 C-221.52402344 263.77224365 -222.11054688 263.17339355 -222.71484375 262.55639648 C-224 261 -224 261 -224 259 C-167.57 259 -111.14 259 -53 259 C-53 242.5 -53 226 -53 209 C-90.62 209 -128.24 209 -167 209 C-167 172.7 -167 136.4 -167 99 C-111.89 99 -56.78 99 0 99 C0 66.33 0 33.66 0 0 Z " fill="#CEB57F" transform="translate(247,29)"/>
<path d="M0 0 C55.11 0 110.22 0 167 0 C167 11.88 167 23.76 167 36 C122.12 36 77.24 36 31 36 C31 48.21 31 60.42 31 73 C68.29 73 105.58 73 144 73 C144 114.25 144 155.5 144 198 C77.67 198 11.34 198 -57 198 C-55.44447428 194.88894856 -54.40577141 193.12362479 -52.1796875 190.65234375 C-51.64472656 190.04712891 -51.10976563 189.44191406 -50.55859375 188.81835938 C-49.43077947 187.55839981 -48.30054421 186.30060336 -47.16796875 185.04492188 C-46.63558594 184.44099609 -46.10320313 183.83707031 -45.5546875 183.21484375 C-45.06468262 182.66948975 -44.57467773 182.12413574 -44.06982422 181.56225586 C-42.71749397 179.90303431 -42.71749397 179.90303431 -43 177 C-44.29509377 175.22984814 -44.29509377 175.22984814 -46.0625 173.49609375 C-46.69414063 172.83802734 -47.32578125 172.17996094 -47.9765625 171.50195312 C-48.64429688 170.82068359 -49.31203125 170.13941406 -50 169.4375 C-51.3168868 168.08629279 -52.6296206 166.73102141 -53.9375 165.37109375 C-54.81728516 164.4728186 -54.81728516 164.4728186 -55.71484375 163.55639648 C-57 162 -57 162 -57 160 C-0.57 160 55.86 160 114 160 C114 143.5 114 127 114 110 C76.38 110 38.76 110 0 110 C0 73.7 0 37.4 0 0 Z " fill="#DDB657" transform="translate(80,128)"/>
<path d="M0 0 C9.9 0 19.8 0 30 0 C30 29.37 30 58.74 30 89 C-36.33 89 -102.66 89 -171 89 C-169.44447428 85.88894856 -168.40577141 84.12362479 -166.1796875 81.65234375 C-165.64472656 81.04712891 -165.10976562 80.44191406 -164.55859375 79.81835938 C-163.43077947 78.55839981 -162.30054421 77.30060336 -161.16796875 76.04492188 C-160.36939453 75.1390332 -160.36939453 75.1390332 -159.5546875 74.21484375 C-159.06468262 73.66948975 -158.57467773 73.12413574 -158.06982422 72.56225586 C-156.71749397 70.90303431 -156.71749397 70.90303431 -157 68 C-158.29509377 66.22984814 -158.29509377 66.22984814 -160.0625 64.49609375 C-160.69414062 63.83802734 -161.32578125 63.17996094 -161.9765625 62.50195312 C-162.64429688 61.82068359 -163.31203125 61.13941406 -164 60.4375 C-165.3168868 59.08629279 -166.6296206 57.73102141 -167.9375 56.37109375 C-168.52402344 55.77224365 -169.11054688 55.17339355 -169.71484375 54.55639648 C-171 53 -171 53 -171 51 C-114.57 51 -58.14 51 0 51 C0 34.17 0 17.34 0 0 Z " fill="#070707" transform="translate(194,237)"/>
<path d="M0 0 C9.9 0 19.8 0 30 0 C30 52.8 30 105.6 30 160 C20.1 160 10.2 160 0 160 C0 107.2 0 54.4 0 0 Z " fill="#020202" transform="translate(334,165)"/>
<path d="M0 0 C9.9 0 19.8 0 30 0 C30 52.8 30 105.6 30 160 C20.1 160 10.2 160 0 160 C0 107.2 0 54.4 0 0 Z " fill="#000000" transform="translate(247,165)"/>
<path d="M0 0 C9.9 0 19.8 0 30 0 C30 32.34 30 64.68 30 98 C20.1 98 10.2 98 0 98 C0 65.66 0 33.32 0 0 Z " fill="#020202" transform="translate(334,30)"/>
<path d="M0 0 C9.9 0 19.8 0 30 0 C30 32.34 30 64.68 30 98 C20.1 98 10.2 98 0 98 C0 65.66 0 33.32 0 0 Z " fill="#000000" transform="translate(247,30)"/>
<path d="M0 0 C7.86742144 -0.27493677 15.71688471 -0.53482654 23.58494568 -0.67275238 C27.25034684 -0.74064409 30.91166471 -0.83082575 34.57470703 -0.98071289 C52.75138992 -1.70487288 66.54757761 -0.96850557 81.07507324 11.38174438 C83.92354834 13.77641255 86.94996872 15.87063372 90 18 C78.65132208 29.59513421 66.41866441 37.12107142 49.96906281 37.3642807 C44.24548964 37.37213774 38.53909355 37.21062406 32.82141113 36.96130371 C29.10739234 36.81536855 25.39189032 36.75280595 21.67578125 36.68359375 C14.44313044 36.54303696 7.23349547 36.26917319 0 36 C0 24.12 0 12.24 0 0 Z " fill="#DDB658" transform="translate(365,128)"/>
<path d="M0 0 C18.48 0 36.96 0 56 0 C56 11.88 56 23.76 56 36 C37.52 36 19.04 36 0 36 C0 24.12 0 12.24 0 0 Z " fill="#DDB656" transform="translate(278,128)"/>
</svg>
