<?xml version="1.0" encoding="UTF-8"?>
<svg version="1.1" xmlns="http://www.w3.org/2000/svg" width="1667" height="729">
<path d="M0 0 C13.53 0 27.06 0 41 0 C41 43.89 41 87.78 41 133 C66.08 133 91.16 133 117 133 C117 89.11 117 45.22 117 0 C130.86 0 144.72 0 159 0 C159 43.89 159 87.78 159 133 C185.59576563 132.60546541 185.59576563 132.60546541 212.18945312 132.09912109 C217.38574219 132.05395508 217.38574219 132.05395508 219.83435059 132.04556274 C221.50975272 132.0304135 223.18506025 131.99567881 224.85974121 131.94424438 C237.84833291 131.56599648 245.97751219 133.96923864 256.40463448 141.8131237 C258.56459897 143.42003486 260.82432491 144.84973591 263.10546875 146.27734375 C264.46704328 147.16268384 265.82777364 148.04932406 267.1875 148.9375 C268.57630507 149.84324244 269.96561429 150.74821241 271.35546875 151.65234375 C271.98114746 152.06210449 272.60682617 152.47186523 273.25146484 152.89404297 C274.79232558 153.86864491 276.38745195 154.75629734 277.98828125 155.62890625 C278.65214844 156.08136719 279.31601563 156.53382813 280 157 C280 157.99 280 158.98 280 160 C277.77981669 161.606222 275.60724456 162.99499392 273.25 164.375 C271.79302063 165.25444252 270.33735556 166.13606505 268.8828125 167.01953125 C268.09938477 167.49342285 267.31595703 167.96731445 266.50878906 168.45556641 C261.99097099 171.23677672 257.56244153 174.15540483 253.125 177.0625 C251.41983812 178.17925209 249.71414971 179.29520084 248.0078125 180.41015625 C247.28223145 180.88590088 246.55665039 181.36164551 245.80908203 181.85180664 C221.37052791 197.36253809 187.94521925 184 159 184 C159 255.28 159 326.56 159 400 C145.14 400 131.28 400 117 400 C117 328.72 117 257.44 117 184 C91.92 184 66.84 184 41 184 C41 255.28 41 326.56 41 400 C27.47 400 13.94 400 0 400 C0 328.72 0 257.44 0 184 C-60.72 184 -121.44 184 -184 184 C-184 199.84 -184 215.68 -184 232 C-133.51 232 -83.02 232 -31 232 C-31 287.44 -31 342.88 -31 400 C-120.43 400 -209.86 400 -302 400 C-300.08421522 396.16843043 -298.27977152 393.95963354 -295.375 390.875 C-290.65319113 385.77572095 -286.26399604 380.4907882 -282 375 C-286.62834728 368.52632187 -291.79312978 362.82938892 -297.31640625 357.1171875 C-298.22326172 356.16585937 -298.22326172 356.16585937 -299.1484375 355.1953125 C-299.97093994 354.34477295 -299.97093994 354.34477295 -300.81005859 353.47705078 C-302 352 -302 352 -302 350 C-226.1 350 -150.2 350 -72 350 C-72 327.56 -72 305.12 -72 282 C-122.49 282 -172.98 282 -225 282 C-225 232.83 -225 183.66 -225 133 C-150.75 133 -76.5 133 0 133 C0 89.11 0 45.22 0 0 Z " fill="#DCB556" transform="translate(858,114)"/>
<path d="M0 0 C13.86 0 27.72 0 42 0 C42 43.89 42 87.78 42 133 C68.59576563 132.60546541 68.59576563 132.60546541 95.18945312 132.09912109 C100.38574219 132.05395508 100.38574219 132.05395508 102.83435059 132.04556274 C104.50975272 132.0304135 106.18506025 131.99567881 107.85974121 131.94424438 C120.84833291 131.56599648 128.97751219 133.96923864 139.40463448 141.8131237 C141.56459897 143.42003486 143.82432491 144.84973591 146.10546875 146.27734375 C147.46704328 147.16268384 148.82777364 148.04932406 150.1875 148.9375 C151.57630507 149.84324244 152.96561429 150.74821241 154.35546875 151.65234375 C154.98114746 152.06210449 155.60682617 152.47186523 156.25146484 152.89404297 C157.79232558 153.86864491 159.38745195 154.75629734 160.98828125 155.62890625 C161.98408203 156.30759766 161.98408203 156.30759766 163 157 C163 157.99 163 158.98 163 160 C160.77981669 161.606222 158.60724456 162.99499392 156.25 164.375 C154.79302063 165.25444252 153.33735556 166.13606505 151.8828125 167.01953125 C151.09938477 167.49342285 150.31595703 167.96731445 149.50878906 168.45556641 C144.99097099 171.23677672 140.56244153 174.15540483 136.125 177.0625 C134.41983812 178.17925209 132.71414971 179.29520084 131.0078125 180.41015625 C130.28223145 180.88590088 129.55665039 181.36164551 128.80908203 181.85180664 C104.37052791 197.36253809 70.94521925 184 42 184 C42 255.28 42 326.56 42 400 C28.14 400 14.28 400 0 400 C0 328.72 0 257.44 0 184 C-25.08 184 -50.16 184 -76 184 C-76 255.28 -76 326.56 -76 400 C-89.53 400 -103.06 400 -117 400 C-117 312.22 -117 224.44 -117 134 C-69.81688904 132.84919242 -69.81688904 132.84919242 -55.37109375 132.90234375 C-53.90368693 132.90383152 -52.43627954 132.90484078 -50.96887207 132.90539551 C-45.79173944 132.910436 -40.61461848 132.9243875 -35.4375 132.9375 C-23.743125 132.958125 -12.04875 132.97875 0 133 C0 89.11 0 45.22 0 0 Z " fill="#DCB656" transform="translate(975,114)"/>
<path d="M0 0 C13.2 0 26.4 0 40 0 C40 39.27 40 78.54 40 119 C-49.43 119 -138.86 119 -231 119 C-229.08421522 115.16843043 -227.27977152 112.95963354 -224.375 109.875 C-219.65319113 104.77572095 -215.26399604 99.4907882 -211 94 C-215.62834728 87.52632187 -220.79312978 81.82938892 -226.31640625 76.1171875 C-227.22326172 75.16585937 -227.22326172 75.16585937 -228.1484375 74.1953125 C-228.69677246 73.62828613 -229.24510742 73.06125977 -229.81005859 72.47705078 C-231 71 -231 71 -231 69 C-155.1 69 -79.2 69 -1 69 C-1 46.56 -1 24.12 -1 1 C-0.67 0.67 -0.34 0.34 0 0 Z " fill="#000000" transform="translate(787,395)"/>
<path d="M0 0 C13.53 0 27.06 0 41 0 C41 71.61 41 143.22 41 217 C27.14 217 13.28 217 -1 217 C-1.02254397 188.85436771 -1.04097739 160.70874269 -1.05181217 132.56310368 C-1.0569759 119.49559774 -1.06402006 106.42809779 -1.07543945 93.3605957 C-1.08538395 81.97546603 -1.09185287 70.5903407 -1.09408849 59.20520681 C-1.095396 53.17281554 -1.09848437 47.14043669 -1.10573006 41.10804939 C-1.11248658 35.43730143 -1.11461772 29.76657108 -1.11310768 24.09581947 C-1.11338418 22.00797683 -1.11539147 19.92013364 -1.11920547 17.83229446 C-1.12413698 14.99499084 -1.12300031 12.15775482 -1.12025452 9.32044983 C-1.12316736 8.48291784 -1.1260802 7.64538585 -1.12908131 6.7824741 C-1.11412121 1.11412121 -1.11412121 1.11412121 0 0 Z " fill="#000000" transform="translate(976,297)"/>
<path d="M0 0 C13.53 0 27.06 0 41 0 C41 71.61 41 143.22 41 217 C27.47 217 13.94 217 0 217 C0 145.39 0 73.78 0 0 Z " fill="#000000" transform="translate(858,297)"/>
<path d="M0 0 C13.86 0 27.72 0 42 0 C42 44.22 42 88.44 42 134 C28.47 134 14.94 134 1 134 C0 133 0 133 -0.12304783 130.79984188 C-0.12166514 129.33004297 -0.12166514 129.33004297 -0.12025452 127.83055115 C-0.12162918 126.71009399 -0.12300385 125.58963684 -0.12442017 124.43522644 C-0.12082489 123.19517349 -0.11722961 121.95512054 -0.11352539 120.67749023 C-0.11367142 119.38011932 -0.11381744 118.08274841 -0.1139679 116.74606323 C-0.11425586 113.17804071 -0.10835932 109.61005152 -0.10139394 106.04203677 C-0.09516021 102.3170938 -0.09455659 98.59215014 -0.09336853 94.86720276 C-0.09025527 87.80882637 -0.08204195 80.7504654 -0.07201904 73.69209582 C-0.06085774 65.65837029 -0.05534741 57.62464404 -0.05032361 49.5909127 C-0.03985933 33.06059801 -0.02151392 16.53030456 0 0 Z " fill="#000000" transform="translate(975,114)"/>
<path d="M0 0 C13.53 0 27.06 0 41 0 C41 44.22 41 88.44 41 134 C27.47 134 13.94 134 0 134 C0 89.78 0 45.56 0 0 Z " fill="#000000" transform="translate(858,114)"/>
<path d="M0 0 C20.0722308 -0.40108809 20.0722308 -0.40108809 28.72265625 -0.48828125 C34.59322097 -0.54773795 40.46220545 -0.6175514 46.33154297 -0.75439453 C51.07148852 -0.86419634 55.80973703 -0.92307595 60.55085754 -0.94877243 C62.34652894 -0.96704886 64.14212233 -1.00273351 65.9370575 -1.05730057 C78.88976455 -1.43489527 87.00787903 0.99208234 97.40463448 8.8131237 C99.56459897 10.42003486 101.82432491 11.84973591 104.10546875 13.27734375 C105.46704328 14.16268384 106.82777364 15.04932406 108.1875 15.9375 C109.57630507 16.84324244 110.96561429 17.74821241 112.35546875 18.65234375 C112.98114746 19.06210449 113.60682617 19.47186523 114.25146484 19.89404297 C115.79232558 20.86864491 117.38745195 21.75629734 118.98828125 22.62890625 C119.65214844 23.08136719 120.31601563 23.53382813 121 24 C121 24.99 121 25.98 121 27 C118.77981669 28.606222 116.60724456 29.99499392 114.25 31.375 C112.79302063 32.25444252 111.33735556 33.13606505 109.8828125 34.01953125 C109.09938477 34.49342285 108.31595703 34.96731445 107.50878906 35.45556641 C102.99097099 38.23677672 98.56244153 41.15540483 94.125 44.0625 C92.41983812 45.17925209 90.71414971 46.29520084 89.0078125 47.41015625 C88.28223145 47.88590088 87.55665039 48.36164551 86.80908203 48.85180664 C82.92954062 51.31408508 79.63497318 51.13447817 75.15380859 51.11352539 C74.34397018 51.11367142 73.53413177 51.11381744 72.69975281 51.1139679 C70.01595404 51.11326977 67.33222419 51.10548204 64.6484375 51.09765625 C62.79041583 51.09579171 60.93239367 51.09436798 59.07437134 51.09336853 C54.17857512 51.08954615 49.28280845 51.07971823 44.38702393 51.06866455 C38.51582449 51.05664828 32.64461519 51.05204686 26.77340698 51.04621124 C17.84891742 51.03650635 8.92449273 51.01734783 0 51 C0 34.17 0 17.34 0 0 Z " fill="#DDB656" transform="translate(1017,247)"/>
<path d="M0 0 C16 0 16 0 19.74414062 2.84570312 C21.01452637 4.72644043 21.01452637 4.72644043 22.15625 6.78125 C22.59972778 7.46932739 23.04320557 8.15740479 23.50012207 8.86633301 C24.8892428 11.04803549 26.19306645 13.26830829 27.5 15.5 C28.43357345 16.99676354 29.37233939 18.49030156 30.31640625 19.98046875 C32.61796562 23.61685165 34.79752186 27.29505615 37 31 C37.33 20.77 37.66 10.54 38 0 C43.28 0 48.56 0 54 0 C54 18.81 54 37.62 54 57 C48.72 57 43.44 57 38 57 C34.8405655 53.79340976 33.16954732 51.8047723 31.14306641 48.02685547 C29.2578674 44.68406987 27.10304294 41.51971374 24.9831543 38.32250977 C22.29051159 34.2356463 19.65073809 30.11416641 17 26 C16.67 36.23 16.34 46.46 16 57 C10.72 57 5.44 57 0 57 C0 38.19 0 19.38 0 0 Z " fill="#000000" transform="translate(1084,556)"/>
<path d="M0 0 C4.98047911 5.40737732 6.16152632 11.19318422 7.1875 18.375 C1.5775 18.375 -4.0325 18.375 -9.8125 18.375 C-10.8025 16.395 -11.7925 14.415 -12.8125 12.375 C-15.97884654 9.972944 -18.93445304 10.13262207 -22.8125 10.375 C-25.07816343 10.81441523 -25.07816343 10.81441523 -26.8125 11.375 C-26.4825 13.025 -26.1525 14.675 -25.8125 16.375 C-21.93509666 17.40369885 -18.10296435 18.32261102 -14.15234375 19.03515625 C-13.50080322 19.15334717 -12.8492627 19.27153809 -12.17797852 19.39331055 C-10.25320785 19.73822529 -8.32584774 20.06859204 -6.3984375 20.3984375 C-1.57989224 21.71067749 1.86151795 23.78382154 5.0625 27.625 C7.39339649 33.32274698 6.61627032 38.92657868 4.296875 44.484375 C1.76096488 48.80613731 -1.89039752 51.53318232 -6.42578125 53.51953125 C-10.89596248 54.64867737 -15.09507457 54.70455953 -19.6875 54.6875 C-20.54730469 54.70361328 -21.40710938 54.71972656 -22.29296875 54.73632812 C-28.81718812 54.74127822 -34.40511712 53.89873938 -39.80078125 49.90234375 C-44.26609945 44.5413275 -46.8125 38.42120885 -46.8125 31.375 C-41.2025 31.375 -35.5925 31.375 -29.8125 31.375 C-28.8225 33.355 -27.8325 35.335 -26.8125 37.375 C-23.81511059 39.37325961 -23.17902492 39.65050398 -19.8125 39.625 C-19.131875 39.63015625 -18.45125 39.6353125 -17.75 39.640625 C-15.48833993 39.47417603 -15.48833993 39.47417603 -12.8125 37.375 C-13.3075 35.395 -13.3075 35.395 -13.8125 33.375 C-14.81047607 33.17922363 -14.81047607 33.17922363 -15.82861328 32.97949219 C-18.86784313 32.37513898 -21.90250972 31.75028113 -24.9375 31.125 C-25.98421875 30.92003906 -27.0309375 30.71507812 -28.109375 30.50390625 C-33.85824593 29.3031927 -38.30239236 28.21858927 -42.8125 24.375 C-45.66053611 19.68952124 -46.29605912 15.95202813 -45.4453125 10.6484375 C-43.92578962 5.18941086 -41.19472046 0.90094386 -36.3125 -2.0625 C-25.13817541 -7.05103776 -10.49219767 -6.06215865 0 0 Z " fill="#000000" transform="translate(574.8125,559.625)"/>
<path d="M0 0 C16.17 0 32.34 0 49 0 C49 4.62 49 9.24 49 14 C38.11 14 27.22 14 16 14 C16 16.64 16 19.28 16 22 C25.9 22 35.8 22 46 22 C46 26.62 46 31.24 46 36 C36.1 36 26.2 36 16 36 C16 38.31 16 40.62 16 43 C26.89 43 37.78 43 49 43 C49 47.62 49 52.24 49 57 C32.83 57 16.66 57 0 57 C0 38.19 0 19.38 0 0 Z " fill="#000000" transform="translate(1026,556)"/>
<path d="M0 0 C9.466875 -0.12375 9.466875 -0.12375 19.125 -0.25 C21.1064502 -0.28641602 23.08790039 -0.32283203 25.12939453 -0.36035156 C26.71385619 -0.37204267 28.29832993 -0.3822335 29.8828125 -0.390625 C30.69419678 -0.41108887 31.50558105 -0.43155273 32.34155273 -0.45263672 C37.71206788 -0.45591843 40.74851405 0.41387894 45 4 C48.05321626 8.5347347 48.46529215 12.66273065 48.375 18 C48.38660156 18.68578125 48.39820313 19.3715625 48.41015625 20.078125 C48.38327583 24.77323793 47.58234827 28.07389585 45 32 C42.89208984 33.1640625 42.89208984 33.1640625 41 34 C41.31807617 34.88522339 41.31807617 34.88522339 41.64257812 35.78833008 C42.5999451 38.46133024 43.55004585 41.13685693 44.5 43.8125 C44.83386719 44.74126953 45.16773438 45.67003906 45.51171875 46.62695312 C45.82753906 47.51962891 46.14335938 48.41230469 46.46875 49.33203125 C46.76201172 50.15421143 47.05527344 50.9763916 47.35742188 51.82348633 C48 54 48 54 48 57 C42.39 57 36.78 57 31 57 C27.535 47.1 27.535 47.1 24 37 C21.36 36.67 18.72 36.34 16 36 C16 42.93 16 49.86 16 57 C10.72 57 5.44 57 0 57 C0 38.19 0 19.38 0 0 Z M16 14 C16 16.64 16 19.28 16 22 C18.29141286 22.05384521 20.58318188 22.09272087 22.875 22.125 C24.15117188 22.14820313 25.42734375 22.17140625 26.7421875 22.1953125 C30.08593338 22.35641524 30.08593338 22.35641524 32 20 C31.71016731 16.69316534 31.71016731 16.69316534 30 14 C27.64686445 13.92728259 25.29166332 13.91629132 22.9375 13.9375 C21.64714844 13.94652344 20.35679687 13.95554687 19.02734375 13.96484375 C18.02832031 13.97644531 17.02929688 13.98804688 16 14 Z " fill="#000000" transform="translate(699,556)"/>
<path d="M0 0 C5.28 0 10.56 0 16 0 C16 7.26 16 14.52 16 22 C19.6694281 20.7768573 19.98190407 19.83030369 21.8828125 16.5625 C22.41003906 15.66789063 22.93726563 14.77328125 23.48046875 13.8515625 C24.02316406 12.91054688 24.56585937 11.96953125 25.125 11 C26.2099117 9.14523293 27.29579706 7.29103492 28.3828125 5.4375 C28.86121582 4.61121094 29.33961914 3.78492188 29.83251953 2.93359375 C31 1 31 1 32 0 C33.4887186 -0.08669432 34.981445 -0.10703494 36.47265625 -0.09765625 C37.37177734 -0.09443359 38.27089844 -0.09121094 39.19726562 -0.08789062 C40.61555664 -0.07532227 40.61555664 -0.07532227 42.0625 -0.0625 C43.01189453 -0.05798828 43.96128906 -0.05347656 44.93945312 -0.04882812 C47.29303065 -0.0370011 49.64648477 -0.02052025 52 0 C49.65923114 5.02019624 47.21325641 9.76581474 44.04296875 14.3203125 C38.33239224 21.90947925 38.33239224 21.90947925 36.015625 30.75 C37.37019562 33.49729815 39.08136221 35.60422287 41 38 C42.48011534 40.32634944 43.89564432 42.68592614 45.31005859 45.05273438 C47.18920221 48.19176531 49.12816746 51.29203085 51.06958008 54.39282227 C52 56 52 56 52 57 C45.11756451 58.18365239 37.7257258 59.32118941 31 57 C25.54282571 52.17872526 22.33383486 44.80021028 20 38 C20 37.34 20 36.68 20 36 C18.68 36 17.36 36 16 36 C16 42.93 16 49.86 16 57 C10.72 57 5.44 57 0 57 C0 38.19 0 19.38 0 0 Z " fill="#000000" transform="translate(756,556)"/>
<path d="M0 0 C4.95 0 9.9 0 15 0 C15 7.26 15 14.52 15 22 C21.6 22 28.2 22 35 22 C35 14.74 35 7.48 35 0 C40.28 0 45.56 0 51 0 C51 18.81 51 37.62 51 57 C45.72 57 40.44 57 35 57 C35 50.07 35 43.14 35 36 C28.4 36 21.8 36 15 36 C15 42.93 15 49.86 15 57 C10.05 57 5.1 57 0 57 C0 38.19 0 19.38 0 0 Z " fill="#000000" transform="translate(849,556)"/>
<path d="M0 0 C0.91644287 0.00523682 1.83288574 0.01047363 2.77709961 0.01586914 C4.26113281 0.02070312 4.26113281 0.02070312 5.77514648 0.02563477 C6.81606445 0.03401367 7.85698242 0.04239258 8.92944336 0.05102539 C10.49662109 0.05779297 10.49662109 0.05779297 12.09545898 0.06469727 C14.68601272 0.07652628 17.27644082 0.09384705 19.86694336 0.11352539 C22.66269842 6.85989498 25.11488902 13.64924482 27.32006836 20.60961914 C27.77769562 22.04266136 27.77769562 22.04266136 28.24456787 23.50465393 C28.88160339 25.50316725 29.5167774 27.50227482 30.15014648 29.50195312 C31.12266894 32.56908265 32.10383475 35.6333579 33.08569336 38.69750977 C33.70600355 40.64721466 34.32581342 42.59707883 34.94506836 44.54711914 C35.3855954 45.92050697 35.3855954 45.92050697 35.83502197 47.32164001 C36.23609161 48.59425438 36.23609161 48.59425438 36.64526367 49.89257812 C36.88190735 50.63740952 37.11855103 51.38224091 37.36236572 52.14964294 C37.86694336 54.11352539 37.86694336 54.11352539 37.86694336 57.11352539 C32.25694336 57.11352539 26.64694336 57.11352539 20.86694336 57.11352539 C17.86694336 49.48852539 17.86694336 49.48852539 17.86694336 46.11352539 C11.92694336 46.11352539 5.98694336 46.11352539 -0.13305664 46.11352539 C-0.44243164 47.55727539 -0.75180664 49.00102539 -1.07055664 50.48852539 C-1.58789311 52.90276225 -2.02790898 54.90323006 -3.13305664 57.11352539 C-8.74305664 57.11352539 -14.35305664 57.11352539 -20.13305664 57.11352539 C-18.71725956 50.2507628 -16.83589465 43.65662508 -14.69165039 36.98852539 C-14.20004173 35.44636353 -14.20004173 35.44636353 -13.69850159 33.87304688 C-13.01039054 31.71773019 -12.32033361 29.56303387 -11.62841797 27.40893555 C-10.56535198 24.09731202 -9.50992538 20.78332121 -8.45532227 17.46899414 C-7.78454826 15.37119396 -7.11333998 13.27353259 -6.44165039 11.17602539 C-6.1249791 10.18135254 -5.8083078 9.18667969 -5.48204041 8.16186523 C-5.18826004 7.25001465 -4.89447968 6.33816406 -4.59179688 5.39868164 C-4.33357651 4.59309814 -4.07535614 3.78751465 -3.80931091 2.95751953 C-2.87625648 0.41328879 -2.75753569 0.14676137 0 0 Z M7.86694336 20.11352539 C6.87694336 24.07352539 5.88694336 28.03352539 4.86694336 32.11352539 C7.50694336 32.11352539 10.14694336 32.11352539 12.86694336 32.11352539 C11.87694336 28.15352539 10.88694336 24.19352539 9.86694336 20.11352539 C9.20694336 20.11352539 8.54694336 20.11352539 7.86694336 20.11352539 Z " fill="#000000" transform="translate(654.133056640625,555.886474609375)"/>
<path d="M0 0 C7.59 0 15.18 0 23 0 C26.37624479 9.00331943 26.37624479 9.00331943 27.7175293 13.19091797 C28.01761398 14.12483368 28.31769867 15.05874939 28.62687683 16.02096558 C28.93949966 17.00146881 29.2521225 17.98197205 29.57421875 18.9921875 C29.90291458 20.01933868 30.23161041 21.04648987 30.57026672 22.10476685 C31.25953901 24.26092354 31.94777019 26.4174133 32.63500977 28.57421875 C33.69119517 31.88658865 34.75264987 35.19723976 35.81445312 38.5078125 C36.48469364 40.60666911 37.15462653 42.70562398 37.82421875 44.8046875 C38.14291428 45.79733612 38.4616098 46.78998474 38.78996277 47.81271362 C39.08059097 48.72771637 39.37121918 49.64271912 39.6706543 50.58544922 C39.92807907 51.39182831 40.18550385 52.1982074 40.45072937 53.02902222 C41 55 41 55 41 57 C35.39 57 29.78 57 24 57 C21 49.375 21 49.375 21 46 C15.06 46 9.12 46 3 46 C2.01 49.63 1.02 53.26 0 57 C-5.61 57 -11.22 57 -17 57 C-15.56615854 50.05933074 -13.66224862 43.37497194 -11.5234375 36.62109375 C-11.02827133 35.04208031 -11.02827133 35.04208031 -10.52310181 33.4311676 C-9.47723219 30.09883401 -8.4262025 26.76815467 -7.375 23.4375 C-6.66111562 21.16612331 -5.9475705 18.89463996 -5.234375 16.62304688 C-3.49413367 11.0805806 -1.74691089 5.54038526 0 0 Z M11 20 C10.49440092 21.43554025 9.9957251 22.8735202 9.5 24.3125 C9.2215625 25.11300781 8.943125 25.91351562 8.65625 26.73828125 C7.86066893 29.08769422 7.86066893 29.08769422 8 32 C10.64 32 13.28 32 16 32 C15.55149342 30.18504338 15.09090429 28.37306866 14.625 26.5625 C14.24214844 25.04849609 14.24214844 25.04849609 13.8515625 23.50390625 C13.27426046 20.84429676 13.27426046 20.84429676 11 20 Z " fill="#000000" transform="translate(924,556)"/>
<path d="M0 0 C13.53 0 27.06 0 41 0 C41 16.17 41 32.34 41 49 C27.47 49 13.94 49 0 49 C0 32.83 0 16.66 0 0 Z " fill="#E3C27C" transform="translate(976,248)"/>
<path d="M0 0 C13.53 0 27.06 0 41 0 C41 16.17 41 32.34 41 49 C27.47 49 13.94 49 0 49 C0 32.83 0 16.66 0 0 Z " fill="#E4C37D" transform="translate(858,248)"/>
<path d="M0 0 C5.61 0 11.22 0 17 0 C17.78246094 2.51496094 18.56492187 5.02992188 19.37109375 7.62109375 C20.12823894 10.04719113 20.88645415 12.47295164 21.64477539 14.89868164 C22.17259017 16.5890869 22.69928595 18.27984197 23.22485352 19.97094727 C23.9790155 22.39691791 24.73714854 24.8216159 25.49609375 27.24609375 C25.84926918 28.38672523 25.84926918 28.38672523 26.20957947 29.55039978 C27.09414476 33.05291723 27.09414476 33.05291723 29 36 C29.32798584 34.94498291 29.65597168 33.88996582 29.99389648 32.80297852 C31.20771373 28.9014412 32.42561469 25.00118892 33.64477539 21.10131836 C34.17259017 19.4109131 34.69928595 17.72015803 35.22485352 16.02905273 C35.9790155 13.60308209 36.73714854 11.1783841 37.49609375 8.75390625 C37.73154404 7.99348526 37.96699432 7.23306427 38.20957947 6.44960022 C39.88612829 1.11387171 39.88612829 1.11387171 41 0 C43.86267567 -0.07325168 46.700719 -0.09238205 49.5625 -0.0625 C50.36880859 -0.05798828 51.17511719 -0.05347656 52.00585938 -0.04882812 C54.00393756 -0.03700518 56.00197783 -0.01906914 58 0 C56.04210118 7.34375409 53.93751801 14.62595755 51.6796875 21.8828125 C51.37555939 22.86369843 51.07143127 23.84458435 50.75808716 24.85519409 C50.1220951 26.90409302 49.48511269 28.95268478 48.84716797 31.00097656 C47.8670487 34.15055117 46.89238439 37.30178177 45.91796875 40.453125 C45.29720343 42.45062293 44.67612138 44.44802246 44.0546875 46.4453125 C43.76302704 47.38996368 43.47136658 48.33461487 43.17086792 49.30789185 C42.900336 50.17324554 42.62980408 51.03859924 42.35107422 51.93017578 C42.11363495 52.69419708 41.87619568 53.45821838 41.63156128 54.24539185 C41 56 41 56 40 57 C38.29227642 57.08713831 36.58101351 57.10700007 34.87109375 57.09765625 C33.83662109 57.09443359 32.80214844 57.09121094 31.73632812 57.08789062 C30.64771484 57.07951172 29.55910156 57.07113281 28.4375 57.0625 C26.7987793 57.05573242 26.7987793 57.05573242 25.12695312 57.04882812 C22.41791505 57.03699826 19.70898401 57.02051543 17 57 C14.32809048 48.73284517 11.66037365 40.46436148 8.99816895 32.19407654 C7.60028361 27.85426268 6.19219408 23.51791455 4.77734375 19.18359375 C4.14310724 17.22660201 3.50898395 15.26957357 2.875 13.3125 C2.58036865 12.41837402 2.2857373 11.52424805 1.98217773 10.60302734 C1.71735596 9.78141113 1.45253418 8.95979492 1.1796875 8.11328125 C0.95007324 7.40985596 0.72045898 6.70643066 0.48388672 5.98168945 C0 4 0 4 0 0 Z " fill="#000000" transform="translate(961,556)"/>
<path d="M0 0 C16.17 0 32.34 0 49 0 C49 4.62 49 9.24 49 14 C43.72 14 38.44 14 33 14 C33 28.19 33 42.38 33 57 C27.72 57 22.44 57 17 57 C17 42.81 17 28.62 17 14 C11.39 14 5.78 14 0 14 C0 9.38 0 4.76 0 0 Z " fill="#000000" transform="translate(587,556)"/>
</svg>
