<?xml version="1.0" encoding="UTF-8"?>
<svg xmlns="http://www.w3.org/2000/svg" xmlns:xlink="http://www.w3.org/1999/xlink" width="193px" height="52px" viewBox="0 0 193 52" version="1.1">
<g id="surface1">
<path style=" stroke:none;fill-rule:nonzero;fill:rgb(86.27451%,70.980392%,33.72549%);fill-opacity:1;" d="M 63.445312 15.40625 C 64.628906 15.40625 65.816406 15.40625 67.035156 15.40625 C 67.035156 17.738281 67.035156 20.066406 67.035156 22.46875 C 69.175781 22.46875 71.3125 22.46875 73.519531 22.46875 C 73.519531 20.140625 73.519531 17.808594 73.519531 15.40625 C 74.703125 15.40625 75.886719 15.40625 77.105469 15.40625 C 77.105469 17.738281 77.105469 20.066406 77.105469 22.46875 C 79.402344 22.433594 79.402344 22.433594 81.699219 22.386719 C 83.621094 22.359375 84.980469 22.488281 86.492188 23.28125 C 86.824219 23.453125 87.175781 23.601562 87.527344 23.753906 C 87.199219 23.96875 86.871094 24.125 86.464844 24.28125 C 86.351562 24.324219 86.238281 24.371094 86.125 24.414062 C 86.007812 24.460938 85.890625 24.503906 85.769531 24.550781 C 85.535156 24.640625 85.300781 24.730469 85.070312 24.820312 C 84.964844 24.859375 84.863281 24.902344 84.757812 24.941406 C 84.527344 25.027344 84.527344 25.027344 84.402344 25.109375 C 81.996094 25.109375 79.585938 25.109375 77.105469 25.109375 C 77.105469 28.898438 77.105469 32.6875 77.105469 36.59375 C 75.921875 36.59375 74.738281 36.59375 73.519531 36.59375 C 73.519531 32.804688 73.519531 29.011719 73.519531 25.109375 C 71.378906 25.109375 69.238281 25.109375 67.035156 25.109375 C 67.035156 28.898438 67.035156 32.6875 67.035156 36.59375 C 65.851562 36.59375 64.664062 36.59375 63.445312 36.59375 C 63.445312 32.804688 63.445312 29.011719 63.445312 25.109375 C 58.25 25.109375 53.054688 25.109375 47.699219 25.109375 C 47.699219 25.957031 47.699219 26.804688 47.699219 27.675781 C 52.015625 27.675781 56.335938 27.675781 60.78125 27.675781 C 60.78125 30.617188 60.78125 33.5625 60.78125 36.59375 C 53.101562 36.59375 45.425781 36.59375 37.511719 36.59375 C 37.691406 36.371094 37.8125 36.246094 38.070312 36.070312 C 38.164062 36.003906 38.164062 36.003906 38.257812 35.9375 C 38.386719 35.847656 38.519531 35.757812 38.648438 35.667969 C 38.710938 35.625 38.773438 35.582031 38.835938 35.539062 C 38.894531 35.5 38.949219 35.460938 39.007812 35.421875 C 39.164062 35.300781 39.164062 35.300781 39.132812 35.09375 C 38.984375 34.96875 38.984375 34.96875 38.777344 34.84375 C 38.667969 34.773438 38.667969 34.773438 38.554688 34.703125 C 38.480469 34.652344 38.402344 34.605469 38.320312 34.554688 C 38.167969 34.457031 38.019531 34.363281 37.867188 34.265625 C 37.796875 34.222656 37.730469 34.179688 37.660156 34.136719 C 37.511719 34.023438 37.511719 34.023438 37.511719 33.882812 C 44.046875 33.882812 50.578125 33.882812 57.308594 33.882812 C 57.308594 32.703125 57.308594 31.527344 57.308594 30.316406 C 52.953125 30.316406 48.597656 30.316406 44.109375 30.316406 C 44.109375 27.726562 44.109375 25.136719 44.109375 22.46875 C 50.492188 22.46875 56.871094 22.46875 63.445312 22.46875 C 63.445312 20.140625 63.445312 17.808594 63.445312 15.40625 Z M 63.445312 15.40625 "/>
<path style=" stroke:none;fill-rule:nonzero;fill:rgb(86.666667%,71.372549%,33.72549%);fill-opacity:1;" d="M 63.445312 15.40625 C 64.628906 15.40625 65.816406 15.40625 67.035156 15.40625 C 67.035156 17.738281 67.035156 20.066406 67.035156 22.46875 C 69.175781 22.46875 71.3125 22.46875 73.519531 22.46875 C 73.519531 20.140625 73.519531 17.808594 73.519531 15.40625 C 74.703125 15.40625 75.886719 15.40625 77.105469 15.40625 C 77.105469 17.738281 77.105469 20.066406 77.105469 22.46875 C 79.402344 22.433594 79.402344 22.433594 81.699219 22.386719 C 83.621094 22.359375 84.980469 22.488281 86.492188 23.28125 C 86.824219 23.453125 87.175781 23.601562 87.527344 23.753906 C 87.199219 23.96875 86.871094 24.125 86.464844 24.28125 C 86.351562 24.324219 86.238281 24.371094 86.125 24.414062 C 85.949219 24.480469 85.949219 24.480469 85.769531 24.550781 C 85.535156 24.640625 85.300781 24.730469 85.070312 24.820312 C 84.964844 24.859375 84.863281 24.902344 84.757812 24.941406 C 84.527344 25.027344 84.527344 25.027344 84.402344 25.109375 C 81.996094 25.109375 79.585938 25.109375 77.105469 25.109375 C 77.105469 28.898438 77.105469 32.6875 77.105469 36.59375 C 75.921875 36.59375 74.738281 36.59375 73.519531 36.59375 C 73.519531 32.804688 73.519531 29.011719 73.519531 25.109375 C 71.378906 25.109375 69.238281 25.109375 67.035156 25.109375 C 66.996094 25.085938 66.957031 25.0625 66.917969 25.035156 C 65.773438 25.035156 64.625 25.035156 63.445312 25.035156 C 63.445312 21.859375 63.445312 18.679688 63.445312 15.40625 Z M 63.445312 15.40625 "/>
<path style=" stroke:none;fill-rule:nonzero;fill:rgb(0%,0%,0%);fill-opacity:1;" d="M 57.308594 30.246094 C 58.457031 30.246094 59.601562 30.246094 60.78125 30.246094 C 60.78125 32.339844 60.78125 34.433594 60.78125 36.59375 C 53.101562 36.59375 45.425781 36.59375 37.511719 36.59375 C 37.691406 36.371094 37.8125 36.246094 38.070312 36.070312 C 38.132812 36.023438 38.195312 35.980469 38.257812 35.9375 C 38.386719 35.847656 38.519531 35.757812 38.648438 35.667969 C 38.742188 35.605469 38.742188 35.605469 38.835938 35.539062 C 38.894531 35.5 38.949219 35.460938 39.007812 35.421875 C 39.164062 35.300781 39.164062 35.300781 39.132812 35.09375 C 38.984375 34.96875 38.984375 34.96875 38.777344 34.84375 C 38.703125 34.796875 38.632812 34.75 38.554688 34.703125 C 38.480469 34.652344 38.402344 34.605469 38.320312 34.554688 C 38.167969 34.457031 38.019531 34.363281 37.867188 34.265625 C 37.796875 34.222656 37.730469 34.179688 37.660156 34.136719 C 37.511719 34.023438 37.511719 34.023438 37.511719 33.882812 C 44.046875 33.882812 50.578125 33.882812 57.308594 33.882812 C 57.308594 32.679688 57.308594 31.480469 57.308594 30.246094 Z M 57.308594 30.246094 "/>
<path style=" stroke:none;fill-rule:nonzero;fill:rgb(0%,0%,0%);fill-opacity:1;" d="M 144.027344 28.460938 C 145.132812 28.460938 146.242188 28.460938 147.382812 28.460938 C 148.527344 29.167969 148.527344 29.167969 148.808594 29.492188 C 148.875 29.5625 148.9375 29.632812 149 29.703125 C 149.066406 29.773438 149.128906 29.847656 149.191406 29.917969 C 149.328125 30.058594 149.464844 30.195312 149.601562 30.332031 C 149.855469 30.589844 150.101562 30.847656 150.34375 31.109375 C 150.871094 31.664062 151.449219 32.199219 152.015625 32.742188 C 152.054688 31.328125 152.089844 29.917969 152.128906 28.460938 C 153.238281 28.460938 154.347656 28.460938 155.488281 28.460938 C 155.488281 30.910156 155.488281 33.355469 155.488281 35.878906 C 154.378906 35.878906 153.273438 35.878906 152.128906 35.878906 C 150.988281 35.152344 150.988281 35.152344 150.703125 34.820312 C 150.640625 34.746094 150.578125 34.675781 150.511719 34.601562 C 150.449219 34.527344 150.386719 34.457031 150.320312 34.382812 C 150.1875 34.238281 150.050781 34.097656 149.914062 33.957031 C 149.660156 33.691406 149.414062 33.425781 149.171875 33.160156 C 148.660156 32.621094 148.074219 32.113281 147.5 31.597656 C 147.460938 33.011719 147.421875 34.425781 147.382812 35.878906 C 146.277344 35.878906 145.167969 35.878906 144.027344 35.878906 C 144.027344 33.429688 144.027344 30.984375 144.027344 28.460938 Z M 144.027344 28.460938 "/>
<path style=" stroke:none;fill-rule:nonzero;fill:rgb(0%,0%,0%);fill-opacity:1;" d="M 100.378906 16.09375 C 100.527344 16.09375 100.675781 16.09375 100.832031 16.089844 C 102.230469 16.09375 103.566406 16.230469 104.65625 16.8125 C 105.601562 17.417969 106.050781 18.289062 106.050781 19.117188 C 104.945312 19.117188 103.835938 19.117188 102.695312 19.117188 C 102.464844 18.835938 102.234375 18.550781 102 18.261719 C 101.289062 17.929688 100.558594 17.902344 99.683594 17.976562 C 99.3125 18.042969 99.175781 18.097656 98.875 18.261719 C 98.75 18.519531 98.75 18.519531 98.757812 18.761719 C 99.242188 18.96875 99.710938 19.03125 100.28125 19.089844 C 100.46875 19.109375 100.65625 19.128906 100.84375 19.148438 C 101.132812 19.179688 101.425781 19.210938 101.71875 19.238281 C 104.574219 19.53125 104.574219 19.53125 105.4375 20.199219 C 105.957031 20.679688 105.917969 21.269531 105.820312 21.828125 C 105.527344 22.519531 104.976562 23.023438 104.011719 23.414062 C 102.859375 23.804688 101.671875 23.859375 100.378906 23.851562 C 100.242188 23.851562 100.105469 23.851562 99.964844 23.855469 C 98.613281 23.851562 97.28125 23.726562 96.210938 23.183594 C 95.148438 22.484375 94.855469 21.765625 94.707031 20.828125 C 95.8125 20.828125 96.921875 20.828125 98.0625 20.828125 C 98.253906 21.0625 98.445312 21.300781 98.640625 21.542969 C 99.320312 21.953125 99.8125 21.992188 100.730469 21.984375 C 101.277344 21.960938 101.605469 21.851562 101.992188 21.621094 C 102.132812 21.472656 102.132812 21.472656 102.136719 21.289062 C 101.960938 21.0625 101.761719 21.035156 101.390625 20.953125 C 100.601562 20.820312 99.785156 20.75 98.980469 20.664062 C 97.613281 20.523438 96.335938 20.367188 95.398438 19.6875 C 94.875 19.152344 94.785156 18.589844 95.011719 17.988281 C 95.378906 17.285156 95.996094 16.804688 97.019531 16.425781 C 98.132812 16.132812 99.175781 16.085938 100.378906 16.09375 Z M 100.378906 16.09375 "/>
<path style=" stroke:none;fill-rule:nonzero;fill:rgb(0%,0%,0%);fill-opacity:1;" d="M 131.636719 28.460938 C 135.039062 28.460938 138.4375 28.460938 141.941406 28.460938 C 141.941406 29.050781 141.941406 29.636719 141.941406 30.246094 C 139.613281 30.246094 137.28125 30.246094 134.878906 30.246094 C 134.878906 30.574219 134.878906 30.902344 134.878906 31.242188 C 137.019531 31.242188 139.160156 31.242188 141.363281 31.242188 C 141.363281 31.855469 141.363281 32.46875 141.363281 33.097656 C 139.222656 33.097656 137.085938 33.097656 134.878906 33.097656 C 134.878906 33.425781 134.878906 33.757812 134.878906 34.097656 C 137.210938 34.097656 139.542969 34.097656 141.941406 34.097656 C 141.941406 34.683594 141.941406 35.273438 141.941406 35.878906 C 138.542969 35.878906 135.140625 35.878906 131.636719 35.878906 C 131.636719 33.429688 131.636719 30.984375 131.636719 28.460938 Z M 131.636719 28.460938 "/>
<path style=" stroke:none;fill-rule:nonzero;fill:rgb(0%,0%,0%);fill-opacity:1;" d="M 131.289062 16.40625 C 133.269531 16.398438 133.269531 16.398438 135.285156 16.386719 C 135.699219 16.386719 136.113281 16.382812 136.542969 16.378906 C 137.050781 16.378906 137.050781 16.378906 137.292969 16.378906 C 137.457031 16.378906 137.625 16.378906 137.789062 16.375 C 138.882812 16.367188 139.714844 16.371094 140.582031 16.828125 C 140.644531 16.875 140.707031 16.921875 140.769531 16.96875 C 140.835938 17.011719 140.898438 17.058594 140.964844 17.105469 C 141.484375 17.59375 141.410156 18.144531 141.414062 18.707031 C 141.417969 18.796875 141.421875 18.886719 141.425781 18.980469 C 141.433594 19.640625 141.304688 20.144531 140.539062 20.625 C 140.320312 20.746094 140.09375 20.863281 139.859375 20.972656 C 139.933594 21.09375 139.933594 21.09375 140.007812 21.21875 C 140.1875 21.519531 140.371094 21.820312 140.550781 22.121094 C 140.628906 22.253906 140.707031 22.382812 140.785156 22.511719 C 140.898438 22.699219 141.011719 22.886719 141.125 23.074219 C 141.160156 23.132812 141.195312 23.191406 141.230469 23.253906 C 141.480469 23.664062 141.480469 23.664062 141.480469 23.824219 C 140.292969 23.824219 139.109375 23.824219 137.890625 23.824219 C 137.472656 23.136719 137.0625 22.449219 136.683594 21.75 C 136.652344 21.695312 136.621094 21.640625 136.589844 21.585938 C 136.386719 21.203125 136.386719 21.203125 136.386719 21.042969 C 135.773438 21.042969 135.164062 21.042969 134.53125 21.042969 C 134.53125 21.960938 134.53125 22.878906 134.53125 23.824219 C 133.464844 23.824219 132.394531 23.824219 131.289062 23.824219 C 131.289062 21.375 131.289062 18.929688 131.289062 16.40625 Z M 134.53125 18.1875 C 134.53125 18.542969 134.53125 18.894531 134.53125 19.257812 C 135.042969 19.265625 135.554688 19.273438 136.066406 19.277344 C 136.210938 19.28125 136.355469 19.28125 136.507812 19.285156 C 136.714844 19.285156 136.714844 19.285156 136.929688 19.289062 C 137.058594 19.289062 137.1875 19.289062 137.320312 19.292969 C 137.738281 19.25 137.871094 19.179688 138.121094 18.972656 C 138.1875 18.699219 138.207031 18.546875 137.933594 18.316406 C 137.578125 18.152344 137.375 18.15625 136.929688 18.160156 C 136.71875 18.164062 136.71875 18.164062 136.507812 18.164062 C 136.289062 18.167969 136.289062 18.167969 136.066406 18.171875 C 135.847656 18.171875 135.847656 18.171875 135.621094 18.175781 C 135.257812 18.179688 134.894531 18.183594 134.53125 18.1875 Z M 134.53125 18.1875 "/>
<path style=" stroke:none;fill-rule:nonzero;fill:rgb(0%,0%,0%);fill-opacity:1;" d="M 93.664062 28.460938 C 94.769531 28.460938 95.878906 28.460938 97.019531 28.460938 C 97.019531 29.378906 97.019531 30.296875 97.019531 31.242188 C 98.433594 31.242188 99.847656 31.242188 101.304688 31.242188 C 101.304688 30.324219 101.304688 29.40625 101.304688 28.460938 C 102.375 28.460938 103.445312 28.460938 104.546875 28.460938 C 104.546875 30.910156 104.546875 33.355469 104.546875 35.878906 C 103.476562 35.878906 102.40625 35.878906 101.304688 35.878906 C 101.304688 34.960938 101.304688 34.042969 101.304688 33.097656 C 99.890625 33.097656 98.476562 33.097656 97.019531 33.097656 C 97.019531 34.015625 97.019531 34.933594 97.019531 35.878906 C 95.914062 35.878906 94.804688 35.878906 93.664062 35.878906 C 93.664062 33.429688 93.664062 30.984375 93.664062 28.460938 Z M 93.664062 28.460938 "/>
<path style=" stroke:none;fill-rule:nonzero;fill:rgb(0%,0%,0%);fill-opacity:1;" d="M 143.449219 16.40625 C 144.554688 16.40625 145.664062 16.40625 146.804688 16.40625 C 146.804688 17.347656 146.804688 18.289062 146.804688 19.257812 C 147.574219 19.171875 147.574219 19.171875 147.828125 18.964844 C 147.882812 18.90625 147.933594 18.84375 147.988281 18.78125 C 148.078125 18.679688 148.078125 18.679688 148.171875 18.574219 C 148.230469 18.5 148.292969 18.429688 148.355469 18.355469 C 148.539062 18.140625 148.722656 17.925781 148.914062 17.714844 C 149.066406 17.539062 149.199219 17.367188 149.324219 17.183594 C 149.851562 16.480469 149.851562 16.480469 150.386719 16.351562 C 151.027344 16.273438 151.664062 16.308594 152.3125 16.339844 C 152.507812 16.34375 152.703125 16.347656 152.898438 16.355469 C 153.378906 16.367188 153.855469 16.382812 154.332031 16.40625 C 154.257812 16.632812 154.128906 16.800781 153.933594 17 C 153.875 17.0625 153.816406 17.121094 153.757812 17.183594 C 153.695312 17.25 153.628906 17.316406 153.5625 17.382812 C 153.496094 17.449219 153.433594 17.519531 153.363281 17.589844 C 153.027344 17.9375 152.6875 18.28125 152.34375 18.628906 C 152.21875 18.75 152.097656 18.871094 151.976562 18.996094 C 151.820312 19.152344 151.664062 19.308594 151.503906 19.464844 C 151.433594 19.535156 151.363281 19.605469 151.289062 19.679688 C 151.226562 19.746094 151.160156 19.808594 151.09375 19.871094 C 150.953125 20.035156 150.953125 20.035156 150.988281 20.183594 C 151.128906 20.386719 151.300781 20.574219 151.484375 20.765625 C 151.527344 20.804688 151.566406 20.847656 151.609375 20.890625 C 151.738281 21.027344 151.871094 21.164062 152 21.300781 C 152.089844 21.394531 152.179688 21.488281 152.269531 21.582031 C 152.828125 22.164062 153.394531 22.746094 153.976562 23.316406 C 154.332031 23.667969 154.332031 23.667969 154.332031 23.824219 C 150.757812 24.074219 150.757812 24.074219 149.835938 23.6875 C 149.324219 23.328125 149.050781 22.902344 148.789062 22.460938 C 148.597656 22.160156 148.328125 21.898438 148.042969 21.632812 C 147.617188 21.207031 147.617188 21.207031 147.617188 21.042969 C 147.347656 21.042969 147.082031 21.042969 146.804688 21.042969 C 146.804688 21.960938 146.804688 22.878906 146.804688 23.824219 C 145.695312 23.824219 144.589844 23.824219 143.449219 23.824219 C 143.449219 21.375 143.449219 18.929688 143.449219 16.40625 Z M 143.449219 16.40625 "/>
<path style=" stroke:none;fill-rule:nonzero;fill:rgb(0%,0%,0%);fill-opacity:1;" d="M 109.871094 28.460938 C 111.476562 28.460938 113.082031 28.460938 114.734375 28.460938 C 115.628906 30.140625 116.503906 31.820312 117.359375 33.507812 C 117.433594 33.65625 117.507812 33.804688 117.585938 33.953125 C 117.726562 34.230469 117.871094 34.511719 118.011719 34.792969 C 118.078125 34.921875 118.078125 34.921875 118.144531 35.050781 C 118.183594 35.128906 118.222656 35.207031 118.261719 35.285156 C 118.296875 35.355469 118.332031 35.421875 118.367188 35.492188 C 118.441406 35.664062 118.441406 35.664062 118.441406 35.878906 C 117.292969 35.878906 116.148438 35.878906 114.964844 35.878906 C 114.558594 35.207031 114.558594 35.207031 114.421875 34.964844 C 114.394531 34.914062 114.367188 34.863281 114.335938 34.808594 C 114.273438 34.667969 114.273438 34.667969 114.273438 34.453125 C 112.972656 34.453125 111.671875 34.453125 110.335938 34.453125 C 110.257812 34.6875 110.183594 34.921875 110.105469 35.164062 C 109.875 35.519531 109.875 35.519531 109.640625 35.878906 C 108.496094 35.878906 107.347656 35.878906 106.167969 35.878906 C 106.429688 35.15625 106.429688 35.15625 106.605469 34.8125 C 106.667969 34.695312 106.667969 34.695312 106.726562 34.574219 C 106.769531 34.492188 106.8125 34.410156 106.859375 34.328125 C 106.925781 34.191406 106.996094 34.058594 107.066406 33.925781 C 107.136719 33.785156 107.210938 33.644531 107.285156 33.5 C 107.433594 33.210938 107.585938 32.921875 107.734375 32.632812 C 107.882812 32.34375 108.03125 32.054688 108.179688 31.765625 C 108.582031 30.992188 108.976562 30.21875 109.371094 29.441406 C 109.539062 29.117188 109.703125 28.792969 109.871094 28.460938 Z M 112.304688 30.816406 C 111.644531 31.714844 111.644531 31.714844 111.378906 32.667969 C 112.027344 32.667969 112.675781 32.667969 113.34375 32.667969 C 113.039062 32.058594 112.734375 31.445312 112.417969 30.816406 C 112.382812 30.816406 112.34375 30.816406 112.304688 30.816406 Z M 112.304688 30.816406 "/>
<path style=" stroke:none;fill-rule:nonzero;fill:rgb(0%,0%,0%);fill-opacity:1;" d="M 121.101562 16.40625 C 122.667969 16.40625 124.234375 16.40625 125.847656 16.40625 C 126.238281 17.046875 126.238281 17.046875 126.40625 17.363281 C 126.441406 17.4375 126.480469 17.507812 126.519531 17.582031 C 126.558594 17.65625 126.597656 17.734375 126.636719 17.8125 C 126.699219 17.933594 126.699219 17.933594 126.765625 18.054688 C 126.902344 18.316406 127.039062 18.578125 127.171875 18.839844 C 127.265625 19.019531 127.359375 19.199219 127.453125 19.378906 C 127.730469 19.910156 128.003906 20.441406 128.28125 20.972656 C 128.320312 21.046875 128.359375 21.125 128.402344 21.203125 C 128.605469 21.597656 128.8125 21.996094 129.015625 22.394531 C 129.074219 22.507812 129.136719 22.625 129.195312 22.742188 C 129.277344 22.898438 129.359375 23.058594 129.4375 23.214844 C 129.484375 23.300781 129.53125 23.390625 129.574219 23.480469 C 129.671875 23.683594 129.671875 23.683594 129.671875 23.824219 C 128.484375 23.824219 127.300781 23.824219 126.082031 23.824219 C 125.964844 23.617188 125.851562 23.40625 125.734375 23.191406 C 125.699219 23.125 125.660156 23.058594 125.625 22.992188 C 125.59375 22.941406 125.566406 22.886719 125.539062 22.835938 C 125.507812 22.78125 125.480469 22.730469 125.449219 22.675781 C 125.386719 22.539062 125.386719 22.539062 125.386719 22.398438 C 124.125 22.398438 122.863281 22.398438 121.566406 22.398438 C 121.449219 22.65625 121.335938 22.914062 121.21875 23.183594 C 121.105469 23.394531 120.988281 23.605469 120.871094 23.824219 C 119.6875 23.824219 118.503906 23.824219 117.28125 23.824219 C 117.824219 22.695312 118.394531 21.574219 118.972656 20.453125 C 119.101562 20.207031 119.230469 19.957031 119.355469 19.710938 C 119.925781 18.605469 120.503906 17.503906 121.101562 16.40625 Z M 123.417969 18.6875 C 123.261719 18.996094 123.109375 19.304688 122.953125 19.613281 C 122.910156 19.699219 122.867188 19.789062 122.820312 19.878906 C 122.78125 19.960938 122.738281 20.042969 122.695312 20.128906 C 122.65625 20.207031 122.617188 20.285156 122.578125 20.363281 C 122.488281 20.523438 122.488281 20.523438 122.492188 20.613281 C 123.140625 20.613281 123.789062 20.613281 124.460938 20.613281 C 124.183594 19.964844 123.863281 19.328125 123.535156 18.6875 C 123.496094 18.6875 123.457031 18.6875 123.417969 18.6875 Z M 123.417969 18.6875 "/>
<path style=" stroke:none;fill-rule:nonzero;fill:rgb(0%,0%,0%);fill-opacity:1;" d="M 117.628906 28.460938 C 118.8125 28.460938 120 28.460938 121.21875 28.460938 C 122.078125 30.097656 122.925781 31.738281 123.765625 33.382812 C 124.007812 33.15625 124.113281 32.96875 124.246094 32.710938 C 124.269531 32.667969 124.292969 32.621094 124.320312 32.574219 C 124.398438 32.421875 124.472656 32.269531 124.550781 32.117188 C 124.605469 32.011719 124.660156 31.90625 124.714844 31.800781 C 124.855469 31.527344 125 31.25 125.140625 30.972656 C 125.308594 30.640625 125.480469 30.308594 125.652344 29.976562 C 125.910156 29.46875 126.167969 28.964844 126.429688 28.460938 C 127.613281 28.460938 128.796875 28.460938 130.015625 28.460938 C 129.625 29.34375 129.625 29.34375 129.433594 29.714844 C 129.390625 29.796875 129.347656 29.878906 129.304688 29.964844 C 129.234375 30.097656 129.234375 30.097656 129.167969 30.234375 C 129.117188 30.328125 129.070312 30.421875 129.019531 30.515625 C 128.890625 30.765625 128.761719 31.011719 128.632812 31.261719 C 128.429688 31.652344 128.226562 32.046875 128.027344 32.4375 C 127.976562 32.535156 127.925781 32.628906 127.875 32.726562 C 127.597656 33.265625 127.320312 33.804688 127.050781 34.34375 C 127.027344 34.390625 127.003906 34.441406 126.976562 34.492188 C 126.863281 34.722656 126.746094 34.953125 126.632812 35.183594 C 126.589844 35.265625 126.550781 35.347656 126.507812 35.429688 C 126.457031 35.539062 126.457031 35.539062 126.402344 35.648438 C 126.3125 35.808594 126.3125 35.808594 126.195312 35.878906 C 125.847656 35.886719 125.496094 35.886719 125.148438 35.886719 C 125.042969 35.886719 124.9375 35.886719 124.828125 35.886719 C 124.492188 35.886719 124.152344 35.882812 123.816406 35.882812 C 123.589844 35.882812 123.359375 35.882812 123.132812 35.882812 C 122.570312 35.882812 122.011719 35.878906 121.449219 35.878906 C 121.097656 35.324219 120.808594 34.753906 120.515625 34.1875 C 120.457031 34.078125 120.398438 33.964844 120.34375 33.855469 C 120.222656 33.625 120.101562 33.394531 119.984375 33.160156 C 119.832031 32.871094 119.679688 32.578125 119.53125 32.285156 C 118.996094 31.257812 118.460938 30.226562 117.949219 29.191406 C 117.917969 29.125 117.882812 29.058594 117.847656 28.988281 C 117.628906 28.542969 117.628906 28.542969 117.628906 28.460938 Z M 117.628906 28.460938 "/>
<path style=" stroke:none;fill-rule:nonzero;fill:rgb(0%,0%,0%);fill-opacity:1;" d="M 73.519531 25.109375 C 74.703125 25.109375 75.886719 25.109375 77.105469 25.109375 C 77.105469 28.898438 77.105469 32.6875 77.105469 36.59375 C 75.921875 36.59375 74.738281 36.59375 73.519531 36.59375 C 73.519531 32.804688 73.519531 29.011719 73.519531 25.109375 Z M 73.519531 25.109375 "/>
<path style=" stroke:none;fill-rule:nonzero;fill:rgb(0%,0%,0%);fill-opacity:1;" d="M 63.445312 25.109375 C 64.628906 25.109375 65.816406 25.109375 67.035156 25.109375 C 67.035156 28.898438 67.035156 32.6875 67.035156 36.59375 C 65.851562 36.59375 64.664062 36.59375 63.445312 36.59375 C 63.445312 32.804688 63.445312 29.011719 63.445312 25.109375 Z M 63.445312 25.109375 "/>
<path style=" stroke:none;fill-rule:nonzero;fill:rgb(0%,0%,0%);fill-opacity:1;" d="M 107.324219 16.40625 C 110.726562 16.40625 114.125 16.40625 117.628906 16.40625 C 117.628906 16.996094 117.628906 17.582031 117.628906 18.1875 C 116.484375 18.1875 115.335938 18.1875 114.15625 18.1875 C 114.15625 20.050781 114.15625 21.910156 114.15625 23.824219 C 113.046875 23.824219 111.941406 23.824219 110.796875 23.824219 C 110.796875 21.964844 110.796875 20.105469 110.796875 18.1875 C 109.652344 18.1875 108.507812 18.1875 107.324219 18.1875 C 107.324219 17.601562 107.324219 17.011719 107.324219 16.40625 Z M 107.324219 16.40625 "/>
<path style=" stroke:none;fill-rule:nonzero;fill:rgb(0%,0%,0%);fill-opacity:1;" d="M 73.519531 15.40625 C 74.703125 15.40625 75.886719 15.40625 77.105469 15.40625 C 77.105469 17.738281 77.105469 20.066406 77.105469 22.46875 C 75.921875 22.46875 74.738281 22.46875 73.519531 22.46875 C 73.519531 20.140625 73.519531 17.808594 73.519531 15.40625 Z M 73.519531 15.40625 "/>
<path style=" stroke:none;fill-rule:nonzero;fill:rgb(0%,0%,0%);fill-opacity:1;" d="M 63.445312 15.40625 C 64.628906 15.40625 65.816406 15.40625 67.035156 15.40625 C 67.035156 17.738281 67.035156 20.066406 67.035156 22.46875 C 65.851562 22.46875 64.664062 22.46875 63.445312 22.46875 C 63.445312 20.140625 63.445312 17.808594 63.445312 15.40625 Z M 63.445312 15.40625 "/>
<path style=" stroke:none;fill-rule:nonzero;fill:rgb(86.666667%,71.372549%,33.72549%);fill-opacity:1;" d="M 77.105469 22.46875 C 78.019531 22.449219 78.925781 22.429688 79.839844 22.421875 C 80.261719 22.417969 80.6875 22.410156 81.109375 22.398438 C 83.214844 22.347656 84.8125 22.398438 86.492188 23.28125 C 86.824219 23.453125 87.175781 23.601562 87.527344 23.753906 C 87.199219 23.96875 86.871094 24.125 86.464844 24.28125 C 86.296875 24.347656 86.296875 24.347656 86.125 24.414062 C 86.007812 24.460938 85.890625 24.503906 85.769531 24.550781 C 85.535156 24.640625 85.300781 24.730469 85.070312 24.820312 C 84.964844 24.859375 84.863281 24.902344 84.757812 24.941406 C 84.527344 25.027344 84.527344 25.027344 84.402344 25.109375 C 84.175781 25.113281 83.945312 25.117188 83.71875 25.117188 C 83.574219 25.117188 83.425781 25.117188 83.277344 25.117188 C 83.117188 25.117188 82.953125 25.117188 82.792969 25.117188 C 82.632812 25.113281 82.46875 25.113281 82.304688 25.113281 C 81.875 25.113281 81.441406 25.113281 81.011719 25.113281 C 80.496094 25.113281 79.980469 25.113281 79.464844 25.113281 C 78.679688 25.109375 77.890625 25.109375 77.105469 25.109375 C 77.105469 24.238281 77.105469 23.367188 77.105469 22.46875 Z M 77.105469 22.46875 "/>
<path style=" stroke:none;fill-rule:nonzero;fill:rgb(87.843137%,74.901961%,48.235294%);fill-opacity:1;" d="M 73.519531 22.46875 C 74.703125 22.46875 75.886719 22.46875 77.105469 22.46875 C 77.105469 23.339844 77.105469 24.210938 77.105469 25.109375 C 75.921875 25.109375 74.738281 25.109375 73.519531 25.109375 C 73.519531 24.238281 73.519531 23.367188 73.519531 22.46875 Z M 73.519531 22.46875 "/>
<path style=" stroke:none;fill-rule:nonzero;fill:rgb(88.627451%,76.078431%,48.627451%);fill-opacity:1;" d="M 63.445312 22.46875 C 64.628906 22.46875 65.816406 22.46875 67.035156 22.46875 C 66.996094 23.316406 66.957031 24.164062 66.917969 25.035156 C 65.773438 25.035156 64.625 25.035156 63.445312 25.035156 C 63.445312 24.191406 63.445312 23.34375 63.445312 22.46875 Z M 63.445312 22.46875 "/>
</g>
</svg>
