<?xml version="1.0" encoding="UTF-8"?>
<svg xmlns="http://www.w3.org/2000/svg" xmlns:xlink="http://www.w3.org/1999/xlink" width="193px" height="52px" viewBox="0 0 193 52" version="1.1">
<g id="surface1">
<path style=" stroke:none;fill-rule:nonzero;fill:rgb(86.27451%,70.980392%,33.72549%);fill-opacity:1;" d="M 99.335938 8.132812 C 100.902344 8.132812 102.46875 8.132812 104.082031 8.132812 C 104.082031 11.261719 104.082031 14.394531 104.082031 17.617188 C 106.988281 17.617188 109.890625 17.617188 112.882812 17.617188 C 112.882812 14.488281 112.882812 11.355469 112.882812 8.132812 C 114.488281 8.132812 116.089844 8.132812 117.746094 8.132812 C 117.746094 11.261719 117.746094 14.394531 117.746094 17.617188 C 120.824219 17.589844 120.824219 17.589844 123.902344 17.554688 C 124.503906 17.550781 124.503906 17.550781 124.789062 17.550781 C 124.980469 17.550781 125.175781 17.546875 125.371094 17.542969 C 126.875 17.515625 127.816406 17.6875 129.023438 18.246094 C 129.273438 18.363281 129.535156 18.464844 129.796875 18.566406 C 129.957031 18.628906 130.113281 18.691406 130.269531 18.753906 C 130.429688 18.820312 130.59375 18.882812 130.753906 18.949219 C 130.824219 18.976562 130.898438 19.007812 130.972656 19.039062 C 131.152344 19.105469 131.335938 19.171875 131.519531 19.234375 C 131.597656 19.265625 131.675781 19.296875 131.753906 19.332031 C 131.753906 19.402344 131.753906 19.472656 131.753906 19.542969 C 131.496094 19.660156 131.246094 19.757812 130.972656 19.855469 C 130.804688 19.917969 130.636719 19.980469 130.46875 20.046875 C 130.375 20.078125 130.285156 20.113281 130.191406 20.148438 C 129.667969 20.347656 129.15625 20.554688 128.640625 20.761719 C 128.445312 20.839844 128.246094 20.921875 128.050781 21 C 127.964844 21.035156 127.882812 21.066406 127.796875 21.101562 C 124.964844 22.210938 121.097656 21.257812 117.746094 21.257812 C 117.746094 26.339844 117.746094 31.425781 117.746094 36.664062 C 116.140625 36.664062 114.535156 36.664062 112.882812 36.664062 C 112.882812 31.578125 112.882812 26.496094 112.882812 21.257812 C 109.980469 21.257812 107.074219 21.257812 104.082031 21.257812 C 104.082031 26.339844 104.082031 31.425781 104.082031 36.664062 C 102.515625 36.664062 100.949219 36.664062 99.335938 36.664062 C 99.335938 31.578125 99.335938 26.496094 99.335938 21.257812 C 92.304688 21.257812 85.277344 21.257812 78.035156 21.257812 C 78.035156 22.386719 78.035156 23.515625 78.035156 24.679688 C 83.878906 24.679688 89.726562 24.679688 95.746094 24.679688 C 95.746094 28.636719 95.746094 32.589844 95.746094 36.664062 C 85.394531 36.664062 75.039062 36.664062 64.371094 36.664062 C 64.59375 36.390625 64.800781 36.234375 65.140625 36.011719 C 65.6875 35.648438 66.195312 35.273438 66.6875 34.878906 C 66.152344 34.417969 65.554688 34.011719 64.914062 33.605469 C 64.808594 33.539062 64.808594 33.539062 64.703125 33.46875 C 64.605469 33.40625 64.605469 33.40625 64.507812 33.34375 C 64.371094 33.238281 64.371094 33.238281 64.371094 33.097656 C 73.160156 33.097656 81.945312 33.097656 91 33.097656 C 91 31.496094 91 29.894531 91 28.246094 C 85.15625 28.246094 79.308594 28.246094 73.285156 28.246094 C 73.285156 24.738281 73.285156 21.230469 73.285156 17.617188 C 81.882812 17.617188 90.480469 17.617188 99.335938 17.617188 C 99.335938 14.488281 99.335938 11.355469 99.335938 8.132812 Z M 99.335938 8.132812 "/>
<path style=" stroke:none;fill-rule:nonzero;fill:rgb(86.27451%,71.372549%,33.72549%);fill-opacity:1;" d="M 112.882812 8.132812 C 114.488281 8.132812 116.089844 8.132812 117.746094 8.132812 C 117.746094 11.261719 117.746094 14.394531 117.746094 17.617188 C 120.824219 17.589844 120.824219 17.589844 123.902344 17.554688 C 124.503906 17.550781 124.503906 17.550781 124.789062 17.550781 C 124.980469 17.550781 125.175781 17.546875 125.371094 17.542969 C 126.875 17.515625 127.816406 17.6875 129.023438 18.246094 C 129.273438 18.363281 129.535156 18.464844 129.796875 18.566406 C 129.957031 18.628906 130.113281 18.691406 130.269531 18.753906 C 130.429688 18.820312 130.59375 18.882812 130.753906 18.949219 C 130.824219 18.976562 130.898438 19.007812 130.972656 19.039062 C 131.152344 19.105469 131.335938 19.171875 131.519531 19.234375 C 131.636719 19.28125 131.636719 19.28125 131.753906 19.332031 C 131.753906 19.402344 131.753906 19.472656 131.753906 19.542969 C 131.496094 19.660156 131.246094 19.757812 130.972656 19.855469 C 130.804688 19.917969 130.636719 19.980469 130.46875 20.046875 C 130.375 20.078125 130.285156 20.113281 130.191406 20.148438 C 129.667969 20.347656 129.15625 20.554688 128.640625 20.761719 C 128.445312 20.839844 128.246094 20.921875 128.050781 21 C 127.964844 21.035156 127.882812 21.066406 127.796875 21.101562 C 124.964844 22.210938 121.097656 21.257812 117.746094 21.257812 C 117.746094 26.339844 117.746094 31.425781 117.746094 36.664062 C 116.140625 36.664062 114.535156 36.664062 112.882812 36.664062 C 112.882812 31.578125 112.882812 26.496094 112.882812 21.257812 C 109.980469 21.257812 107.074219 21.257812 104.082031 21.257812 C 104.082031 26.339844 104.082031 31.425781 104.082031 36.664062 C 102.515625 36.664062 100.949219 36.664062 99.335938 36.664062 C 99.335938 30.402344 99.335938 24.140625 99.335938 17.691406 C 104.800781 17.609375 104.800781 17.609375 106.472656 17.613281 C 106.640625 17.613281 106.8125 17.613281 106.980469 17.613281 C 107.582031 17.613281 108.179688 17.613281 108.78125 17.613281 C 110.132812 17.617188 111.488281 17.617188 112.882812 17.617188 C 112.882812 14.488281 112.882812 11.355469 112.882812 8.132812 Z M 112.882812 8.132812 "/>
<path style=" stroke:none;fill-rule:nonzero;fill:rgb(0%,0%,0%);fill-opacity:1;" d="M 91.117188 28.175781 C 92.644531 28.175781 94.171875 28.175781 95.746094 28.175781 C 95.746094 30.976562 95.746094 33.777344 95.746094 36.664062 C 85.394531 36.664062 75.039062 36.664062 64.371094 36.664062 C 64.59375 36.390625 64.800781 36.234375 65.140625 36.011719 C 65.6875 35.648438 66.195312 35.273438 66.6875 34.878906 C 66.152344 34.417969 65.554688 34.011719 64.914062 33.605469 C 64.808594 33.539062 64.808594 33.539062 64.703125 33.46875 C 64.636719 33.425781 64.574219 33.386719 64.507812 33.34375 C 64.371094 33.238281 64.371094 33.238281 64.371094 33.097656 C 73.160156 33.097656 81.945312 33.097656 91 33.097656 C 91 31.496094 91 29.894531 91 28.246094 C 91.039062 28.222656 91.078125 28.199219 91.117188 28.175781 Z M 91.117188 28.175781 "/>
<path style=" stroke:none;fill-rule:nonzero;fill:rgb(0%,0%,0%);fill-opacity:1;" d="M 113 21.183594 C 114.566406 21.183594 116.132812 21.183594 117.746094 21.183594 C 117.746094 26.292969 117.746094 31.402344 117.746094 36.664062 C 116.140625 36.664062 114.535156 36.664062 112.882812 36.664062 C 112.878906 34.65625 112.878906 32.648438 112.875 30.640625 C 112.875 29.707031 112.875 28.777344 112.875 27.84375 C 112.871094 27.03125 112.871094 26.21875 112.871094 25.410156 C 112.871094 24.976562 112.871094 24.546875 112.871094 24.117188 C 112.871094 23.714844 112.871094 23.308594 112.871094 22.902344 C 112.871094 22.753906 112.867188 22.605469 112.867188 22.457031 C 112.867188 22.253906 112.867188 22.050781 112.867188 21.851562 C 112.867188 21.789062 112.867188 21.730469 112.867188 21.667969 C 112.871094 21.265625 112.871094 21.265625 113 21.183594 Z M 113 21.183594 "/>
<path style=" stroke:none;fill-rule:nonzero;fill:rgb(0%,0%,0%);fill-opacity:1;" d="M 99.335938 21.183594 C 100.902344 21.183594 102.46875 21.183594 104.082031 21.183594 C 104.082031 26.292969 104.082031 31.402344 104.082031 36.664062 C 102.515625 36.664062 100.949219 36.664062 99.335938 36.664062 C 99.335938 31.554688 99.335938 26.449219 99.335938 21.183594 Z M 99.335938 21.183594 "/>
<path style=" stroke:none;fill-rule:nonzero;fill:rgb(0%,0%,0%);fill-opacity:1;" d="M 112.882812 8.132812 C 114.488281 8.132812 116.089844 8.132812 117.746094 8.132812 C 117.746094 11.285156 117.746094 14.441406 117.746094 17.691406 C 116.179688 17.691406 114.613281 17.691406 113 17.691406 C 112.882812 17.617188 112.882812 17.617188 112.867188 17.460938 C 112.867188 17.355469 112.867188 17.355469 112.867188 17.25 C 112.867188 17.171875 112.867188 17.089844 112.867188 17.007812 C 112.867188 16.917969 112.867188 16.832031 112.871094 16.738281 C 112.871094 16.648438 112.871094 16.554688 112.871094 16.460938 C 112.871094 16.203125 112.871094 15.949219 112.871094 15.695312 C 112.871094 15.429688 112.871094 15.164062 112.871094 14.898438 C 112.871094 14.394531 112.871094 13.890625 112.875 13.386719 C 112.875 12.816406 112.875 12.242188 112.875 11.667969 C 112.878906 10.488281 112.878906 9.3125 112.882812 8.132812 Z M 112.882812 8.132812 "/>
<path style=" stroke:none;fill-rule:nonzero;fill:rgb(0%,0%,0%);fill-opacity:1;" d="M 99.335938 8.132812 C 100.902344 8.132812 102.46875 8.132812 104.082031 8.132812 C 104.082031 11.285156 104.082031 14.441406 104.082031 17.691406 C 102.515625 17.691406 100.949219 17.691406 99.335938 17.691406 C 99.335938 14.535156 99.335938 11.382812 99.335938 8.132812 Z M 99.335938 8.132812 "/>
<path style=" stroke:none;fill-rule:nonzero;fill:rgb(86.666667%,71.372549%,33.72549%);fill-opacity:1;" d="M 117.746094 17.617188 C 120.070312 17.589844 120.070312 17.589844 121.070312 17.582031 C 121.75 17.578125 122.429688 17.574219 123.109375 17.566406 C 123.65625 17.558594 124.207031 17.554688 124.753906 17.550781 C 124.964844 17.550781 125.171875 17.546875 125.378906 17.542969 C 126.878906 17.515625 127.820312 17.6875 129.023438 18.246094 C 129.273438 18.363281 129.535156 18.464844 129.796875 18.566406 C 129.957031 18.628906 130.113281 18.691406 130.269531 18.753906 C 130.429688 18.820312 130.59375 18.882812 130.753906 18.949219 C 130.824219 18.976562 130.898438 19.007812 130.972656 19.039062 C 131.152344 19.105469 131.335938 19.171875 131.519531 19.234375 C 131.597656 19.265625 131.675781 19.296875 131.753906 19.332031 C 131.753906 19.402344 131.753906 19.472656 131.753906 19.542969 C 131.496094 19.660156 131.246094 19.757812 130.972656 19.855469 C 130.804688 19.917969 130.636719 19.980469 130.46875 20.046875 C 130.375 20.078125 130.285156 20.113281 130.191406 20.148438 C 129.667969 20.347656 129.15625 20.554688 128.640625 20.761719 C 128.445312 20.839844 128.246094 20.921875 128.050781 21 C 127.964844 21.035156 127.882812 21.066406 127.796875 21.101562 C 127.347656 21.277344 126.964844 21.265625 126.445312 21.265625 C 126.351562 21.265625 126.257812 21.265625 126.160156 21.265625 C 125.851562 21.265625 125.539062 21.265625 125.230469 21.261719 C 125.015625 21.261719 124.800781 21.261719 124.585938 21.261719 C 124.019531 21.261719 123.449219 21.261719 122.882812 21.261719 C 122.203125 21.261719 121.523438 21.261719 120.84375 21.261719 C 119.8125 21.257812 118.777344 21.257812 117.746094 21.257812 C 117.746094 20.054688 117.746094 18.855469 117.746094 17.617188 Z M 117.746094 17.617188 "/>
<path style=" stroke:none;fill-rule:nonzero;fill:rgb(0%,0%,0%);fill-opacity:1;" d="M 125.503906 39.660156 C 127.355469 39.660156 127.355469 39.660156 127.789062 39.863281 C 127.933594 39.996094 127.933594 39.996094 128.066406 40.144531 C 128.117188 40.191406 128.171875 40.242188 128.222656 40.292969 C 128.382812 40.449219 128.535156 40.605469 128.6875 40.765625 C 128.792969 40.871094 128.902344 40.980469 129.011719 41.085938 C 129.277344 41.34375 129.53125 41.605469 129.785156 41.871094 C 129.824219 41.140625 129.863281 40.410156 129.902344 39.660156 C 130.511719 39.660156 131.125 39.660156 131.753906 39.660156 C 131.753906 41 131.753906 42.34375 131.753906 43.726562 C 131.144531 43.726562 130.53125 43.726562 129.902344 43.726562 C 129.535156 43.496094 129.34375 43.355469 129.109375 43.085938 C 128.890625 42.847656 128.640625 42.621094 128.394531 42.394531 C 128.082031 42.101562 127.777344 41.808594 127.46875 41.515625 C 127.433594 42.242188 127.394531 42.972656 127.355469 43.726562 C 126.742188 43.726562 126.132812 43.726562 125.503906 43.726562 C 125.503906 42.382812 125.503906 41.042969 125.503906 39.660156 Z M 125.503906 39.660156 "/>
<path style=" stroke:none;fill-rule:nonzero;fill:rgb(0%,0%,0%);fill-opacity:1;" d="M 66.550781 39.917969 C 67.125 40.304688 67.261719 40.71875 67.382812 41.230469 C 66.734375 41.230469 66.082031 41.230469 65.414062 41.230469 C 65.300781 41.085938 65.183594 40.945312 65.066406 40.800781 C 64.699219 40.628906 64.359375 40.640625 63.910156 40.660156 C 63.648438 40.691406 63.648438 40.691406 63.445312 40.730469 C 63.484375 40.847656 63.523438 40.964844 63.5625 41.085938 C 64.011719 41.160156 64.453125 41.226562 64.910156 41.277344 C 64.988281 41.285156 65.0625 41.292969 65.140625 41.300781 C 65.363281 41.328125 65.585938 41.351562 65.808594 41.375 C 66.367188 41.46875 66.765625 41.613281 67.136719 41.890625 C 67.40625 42.296875 67.316406 42.695312 67.046875 43.089844 C 66.753906 43.398438 66.332031 43.59375 65.804688 43.734375 C 65.289062 43.816406 64.800781 43.820312 64.269531 43.820312 C 64.171875 43.820312 64.070312 43.820312 63.96875 43.824219 C 63.214844 43.824219 62.566406 43.761719 61.941406 43.476562 C 61.425781 43.09375 61.128906 42.660156 61.128906 42.15625 C 61.78125 42.15625 62.429688 42.15625 63.097656 42.15625 C 63.214844 42.296875 63.328125 42.4375 63.445312 42.585938 C 63.792969 42.726562 63.867188 42.746094 64.257812 42.746094 C 64.335938 42.746094 64.414062 42.746094 64.496094 42.746094 C 64.757812 42.734375 64.757812 42.734375 65.066406 42.585938 C 65.007812 42.441406 65.007812 42.441406 64.949219 42.300781 C 64.835938 42.285156 64.835938 42.285156 64.71875 42.269531 C 64.367188 42.226562 64.015625 42.183594 63.664062 42.136719 C 63.542969 42.125 63.421875 42.109375 63.296875 42.09375 C 62.628906 42.007812 62.117188 41.929688 61.59375 41.65625 C 61.261719 41.324219 61.191406 41.054688 61.289062 40.679688 C 61.464844 40.289062 61.78125 39.984375 62.347656 39.769531 C 63.640625 39.414062 65.335938 39.484375 66.550781 39.917969 Z M 66.550781 39.917969 "/>
<path style=" stroke:none;fill-rule:nonzero;fill:rgb(0%,0%,0%);fill-opacity:1;" d="M 118.785156 39.660156 C 120.660156 39.660156 122.53125 39.660156 124.460938 39.660156 C 124.460938 39.988281 124.460938 40.320312 124.460938 40.660156 C 123.199219 40.660156 121.9375 40.660156 120.640625 40.660156 C 120.640625 40.847656 120.640625 41.035156 120.640625 41.230469 C 121.785156 41.230469 122.933594 41.230469 124.113281 41.230469 C 124.113281 41.558594 124.113281 41.886719 124.113281 42.226562 C 122.964844 42.226562 121.820312 42.226562 120.640625 42.226562 C 120.640625 42.390625 120.640625 42.558594 120.640625 42.726562 C 121.898438 42.726562 123.160156 42.726562 124.460938 42.726562 C 124.460938 43.054688 124.460938 43.386719 124.460938 43.726562 C 122.589844 43.726562 120.714844 43.726562 118.785156 43.726562 C 118.785156 42.382812 118.785156 41.042969 118.785156 39.660156 Z M 118.785156 39.660156 "/>
<path style=" stroke:none;fill-rule:nonzero;fill:rgb(0%,0%,0%);fill-opacity:1;" d="M 80.929688 39.660156 C 82.023438 39.652344 82.023438 39.652344 83.140625 39.640625 C 83.371094 39.640625 83.601562 39.636719 83.835938 39.632812 C 84.019531 39.632812 84.203125 39.632812 84.386719 39.632812 C 84.480469 39.628906 84.574219 39.628906 84.671875 39.628906 C 85.292969 39.628906 85.644531 39.6875 86.136719 39.945312 C 86.492188 40.269531 86.539062 40.5625 86.527344 40.945312 C 86.53125 40.992188 86.53125 41.042969 86.53125 41.09375 C 86.53125 41.425781 86.4375 41.664062 86.136719 41.941406 C 85.894531 42.027344 85.894531 42.027344 85.675781 42.085938 C 85.710938 42.148438 85.710938 42.148438 85.75 42.210938 C 85.859375 42.402344 85.96875 42.59375 86.082031 42.785156 C 86.117188 42.851562 86.15625 42.917969 86.195312 42.984375 C 86.234375 43.050781 86.269531 43.113281 86.308594 43.179688 C 86.34375 43.238281 86.375 43.296875 86.410156 43.355469 C 86.484375 43.511719 86.484375 43.511719 86.484375 43.726562 C 85.835938 43.726562 85.1875 43.726562 84.515625 43.726562 C 84.117188 43.019531 84.117188 43.019531 83.707031 42.300781 C 83.402344 42.277344 83.09375 42.253906 82.78125 42.226562 C 82.78125 42.722656 82.78125 43.214844 82.78125 43.726562 C 82.167969 43.726562 81.558594 43.726562 80.929688 43.726562 C 80.929688 42.382812 80.929688 41.042969 80.929688 39.660156 Z M 82.78125 40.660156 C 82.78125 40.847656 82.78125 41.035156 82.78125 41.230469 C 83.046875 41.234375 83.3125 41.234375 83.578125 41.238281 C 83.722656 41.238281 83.871094 41.242188 84.023438 41.242188 C 84.410156 41.253906 84.410156 41.253906 84.632812 41.085938 C 84.597656 40.851562 84.597656 40.851562 84.402344 40.660156 C 84.128906 40.652344 83.855469 40.652344 83.582031 40.652344 C 83.433594 40.65625 83.285156 40.65625 83.132812 40.65625 C 83.015625 40.65625 82.898438 40.65625 82.78125 40.660156 Z M 82.78125 40.660156 "/>
<path style=" stroke:none;fill-rule:nonzero;fill:rgb(0%,0%,0%);fill-opacity:1;" d="M 87.527344 39.660156 C 88.136719 39.660156 88.75 39.660156 89.378906 39.660156 C 89.378906 40.175781 89.378906 40.695312 89.378906 41.230469 C 89.804688 41.140625 89.839844 41.074219 90.0625 40.839844 C 90.121094 40.777344 90.183594 40.714844 90.246094 40.648438 C 90.308594 40.582031 90.371094 40.511719 90.4375 40.445312 C 90.5625 40.3125 90.6875 40.179688 90.8125 40.046875 C 90.867188 39.988281 90.925781 39.929688 90.980469 39.867188 C 91.117188 39.730469 91.117188 39.730469 91.230469 39.660156 C 91.40625 39.652344 91.578125 39.652344 91.75 39.652344 C 91.855469 39.652344 91.957031 39.652344 92.066406 39.652344 C 92.230469 39.65625 92.230469 39.65625 92.398438 39.65625 C 92.507812 39.65625 92.617188 39.65625 92.730469 39.65625 C 93.003906 39.65625 93.273438 39.660156 93.546875 39.660156 C 93.277344 40.019531 92.992188 40.355469 92.625 40.679688 C 91.964844 41.222656 91.964844 41.222656 91.695312 41.851562 C 91.855469 42.050781 92.050781 42.199219 92.273438 42.371094 C 92.445312 42.535156 92.609375 42.703125 92.773438 42.875 C 92.992188 43.097656 93.214844 43.320312 93.441406 43.539062 C 93.546875 43.65625 93.546875 43.65625 93.546875 43.726562 C 92.75 43.808594 91.894531 43.890625 91.117188 43.726562 C 90.484375 43.382812 90.113281 42.855469 89.84375 42.371094 C 89.84375 42.324219 89.84375 42.277344 89.84375 42.226562 C 89.691406 42.226562 89.539062 42.226562 89.378906 42.226562 C 89.378906 42.722656 89.378906 43.214844 89.378906 43.726562 C 88.769531 43.726562 88.15625 43.726562 87.527344 43.726562 C 87.527344 42.382812 87.527344 41.042969 87.527344 39.660156 Z M 87.527344 39.660156 "/>
<path style=" stroke:none;fill-rule:nonzero;fill:rgb(0%,0%,0%);fill-opacity:1;" d="M 98.292969 39.660156 C 98.867188 39.660156 99.441406 39.660156 100.03125 39.660156 C 100.03125 40.175781 100.03125 40.695312 100.03125 41.230469 C 100.796875 41.230469 101.558594 41.230469 102.347656 41.230469 C 102.347656 40.710938 102.347656 40.195312 102.347656 39.660156 C 102.957031 39.660156 103.570312 39.660156 104.199219 39.660156 C 104.199219 41 104.199219 42.34375 104.199219 43.726562 C 103.585938 43.726562 102.976562 43.726562 102.347656 43.726562 C 102.347656 43.230469 102.347656 42.738281 102.347656 42.226562 C 101.582031 42.226562 100.820312 42.226562 100.03125 42.226562 C 100.03125 42.722656 100.03125 43.214844 100.03125 43.726562 C 99.457031 43.726562 98.886719 43.726562 98.292969 43.726562 C 98.292969 42.382812 98.292969 41.042969 98.292969 39.660156 Z M 98.292969 39.660156 "/>
<path style=" stroke:none;fill-rule:nonzero;fill:rgb(0%,0%,0%);fill-opacity:1;" d="M 75.734375 39.652344 C 75.839844 39.652344 75.945312 39.652344 76.054688 39.652344 C 76.226562 39.652344 76.226562 39.652344 76.402344 39.652344 C 76.523438 39.652344 76.644531 39.65625 76.765625 39.65625 C 76.949219 39.65625 76.949219 39.65625 77.132812 39.65625 C 77.433594 39.65625 77.734375 39.660156 78.035156 39.660156 C 78.355469 40.140625 78.640625 40.625 78.898438 41.121094 C 78.949219 41.222656 78.949219 41.222656 79.003906 41.328125 C 79.078125 41.472656 79.152344 41.613281 79.222656 41.757812 C 79.335938 41.976562 79.449219 42.195312 79.5625 42.410156 C 79.636719 42.550781 79.707031 42.691406 79.777344 42.828125 C 79.832031 42.925781 79.832031 42.925781 79.882812 43.027344 C 79.929688 43.117188 79.929688 43.117188 79.976562 43.210938 C 80.003906 43.265625 80.03125 43.316406 80.058594 43.371094 C 80.117188 43.511719 80.117188 43.511719 80.117188 43.726562 C 79.46875 43.726562 78.820312 43.726562 78.148438 43.726562 C 77.800781 43.183594 77.800781 43.183594 77.800781 42.941406 C 77.113281 42.941406 76.425781 42.941406 75.71875 42.941406 C 75.683594 43.042969 75.644531 43.148438 75.609375 43.253906 C 75.550781 43.425781 75.5 43.566406 75.371094 43.726562 C 74.722656 43.726562 74.070312 43.726562 73.402344 43.726562 C 73.566406 43.234375 73.785156 42.765625 74.03125 42.289062 C 74.089844 42.179688 74.089844 42.179688 74.148438 42.066406 C 74.226562 41.914062 74.308594 41.761719 74.386719 41.605469 C 74.511719 41.371094 74.632812 41.132812 74.753906 40.898438 C 74.832031 40.75 74.910156 40.597656 74.988281 40.449219 C 75.023438 40.378906 75.0625 40.308594 75.097656 40.234375 C 75.132812 40.167969 75.167969 40.105469 75.203125 40.035156 C 75.230469 39.980469 75.261719 39.921875 75.292969 39.863281 C 75.402344 39.679688 75.414062 39.664062 75.734375 39.652344 Z M 76.644531 41.085938 C 76.53125 41.367188 76.414062 41.652344 76.296875 41.941406 C 76.601562 41.941406 76.910156 41.941406 77.222656 41.941406 C 77.109375 41.660156 76.992188 41.378906 76.875 41.085938 C 76.800781 41.085938 76.722656 41.085938 76.644531 41.085938 Z M 76.644531 41.085938 "/>
<path style=" stroke:none;fill-rule:nonzero;fill:rgb(0%,0%,0%);fill-opacity:1;" d="M 106.976562 39.660156 C 107.855469 39.660156 108.734375 39.660156 109.640625 39.660156 C 110.03125 40.300781 110.03125 40.300781 110.1875 40.601562 C 110.222656 40.667969 110.257812 40.734375 110.292969 40.800781 C 110.328125 40.871094 110.363281 40.941406 110.402344 41.015625 C 110.441406 41.085938 110.476562 41.160156 110.515625 41.238281 C 110.597656 41.390625 110.675781 41.542969 110.757812 41.699219 C 110.878906 41.933594 111 42.171875 111.125 42.40625 C 111.203125 42.554688 111.28125 42.707031 111.355469 42.855469 C 111.394531 42.925781 111.429688 42.996094 111.46875 43.070312 C 111.503906 43.136719 111.535156 43.199219 111.570312 43.269531 C 111.601562 43.324219 111.628906 43.382812 111.660156 43.441406 C 111.726562 43.582031 111.726562 43.582031 111.726562 43.726562 C 111.074219 43.726562 110.425781 43.726562 109.757812 43.726562 C 109.410156 43.183594 109.410156 43.183594 109.410156 42.941406 C 108.722656 42.941406 108.035156 42.941406 107.324219 42.941406 C 107.210938 43.199219 107.097656 43.457031 106.976562 43.726562 C 106.328125 43.726562 105.679688 43.726562 105.007812 43.726562 C 105.175781 43.230469 105.394531 42.753906 105.644531 42.273438 C 105.699219 42.160156 105.699219 42.160156 105.757812 42.042969 C 105.878906 41.808594 106.003906 41.570312 106.125 41.332031 C 106.207031 41.167969 106.289062 41.007812 106.371094 40.84375 C 106.574219 40.449219 106.777344 40.054688 106.976562 39.660156 Z M 108.25 41.085938 C 108.191406 41.1875 108.136719 41.292969 108.078125 41.394531 C 108.046875 41.449219 108.011719 41.507812 107.980469 41.566406 C 107.886719 41.734375 107.886719 41.734375 107.902344 41.941406 C 108.210938 41.941406 108.515625 41.941406 108.832031 41.941406 C 108.777344 41.8125 108.726562 41.683594 108.671875 41.554688 C 108.625 41.445312 108.625 41.445312 108.582031 41.335938 C 108.515625 41.148438 108.515625 41.148438 108.25 41.085938 Z M 108.25 41.085938 "/>
<path style=" stroke:none;fill-rule:nonzero;fill:rgb(89.019608%,76.078431%,48.627451%);fill-opacity:1;" d="M 113 17.691406 C 114.566406 17.691406 116.132812 17.691406 117.746094 17.691406 C 117.746094 18.84375 117.746094 19.996094 117.746094 21.183594 C 116.179688 21.183594 114.613281 21.183594 113 21.183594 C 113 20.03125 113 18.878906 113 17.691406 Z M 113 17.691406 "/>
<path style=" stroke:none;fill-rule:nonzero;fill:rgb(89.411765%,76.470588%,49.019608%);fill-opacity:1;" d="M 99.335938 17.691406 C 100.902344 17.691406 102.46875 17.691406 104.082031 17.691406 C 104.082031 18.84375 104.082031 19.996094 104.082031 21.183594 C 102.515625 21.183594 100.949219 21.183594 99.335938 21.183594 C 99.335938 20.03125 99.335938 18.878906 99.335938 17.691406 Z M 99.335938 17.691406 "/>
<path style=" stroke:none;fill-rule:nonzero;fill:rgb(0%,0%,0%);fill-opacity:1;" d="M 111.261719 39.660156 C 111.910156 39.660156 112.5625 39.660156 113.230469 39.660156 C 113.320312 39.839844 113.410156 40.019531 113.503906 40.203125 C 113.59375 40.375 113.679688 40.550781 113.765625 40.722656 C 113.828125 40.84375 113.890625 40.964844 113.949219 41.085938 C 114.039062 41.257812 114.125 41.429688 114.214844 41.601562 C 114.253906 41.683594 114.253906 41.683594 114.296875 41.769531 C 114.398438 42.015625 114.398438 42.015625 114.617188 42.226562 C 114.65625 42.152344 114.695312 42.078125 114.734375 42 C 114.875 41.722656 115.015625 41.441406 115.15625 41.164062 C 115.21875 41.042969 115.277344 40.921875 115.339844 40.804688 C 115.425781 40.628906 115.515625 40.457031 115.601562 40.285156 C 115.628906 40.230469 115.65625 40.175781 115.683594 40.121094 C 115.878906 39.738281 115.878906 39.738281 116.007812 39.660156 C 116.339844 39.65625 116.667969 39.652344 117 39.65625 C 117.09375 39.65625 117.1875 39.65625 117.28125 39.65625 C 117.515625 39.65625 117.746094 39.660156 117.976562 39.660156 C 117.75 40.183594 117.507812 40.703125 117.246094 41.222656 C 117.210938 41.289062 117.175781 41.359375 117.136719 41.433594 C 117.066406 41.578125 116.992188 41.726562 116.917969 41.871094 C 116.804688 42.097656 116.691406 42.320312 116.578125 42.546875 C 116.507812 42.6875 116.433594 42.832031 116.363281 42.972656 C 116.328125 43.039062 116.292969 43.109375 116.257812 43.175781 C 116.226562 43.238281 116.195312 43.300781 116.164062 43.363281 C 116.136719 43.417969 116.109375 43.472656 116.082031 43.527344 C 116.007812 43.65625 116.007812 43.65625 115.894531 43.726562 C 115.695312 43.730469 115.496094 43.734375 115.296875 43.734375 C 115.179688 43.730469 115.058594 43.730469 114.9375 43.730469 C 114.808594 43.730469 114.683594 43.730469 114.554688 43.730469 C 114.363281 43.730469 114.363281 43.730469 114.171875 43.730469 C 113.855469 43.726562 113.542969 43.726562 113.230469 43.726562 C 112.921875 43.136719 112.613281 42.546875 112.304688 41.957031 C 112.140625 41.648438 111.976562 41.335938 111.816406 41.027344 C 111.742188 40.886719 111.667969 40.75 111.59375 40.609375 C 111.558594 40.546875 111.527344 40.480469 111.492188 40.417969 C 111.460938 40.359375 111.429688 40.300781 111.398438 40.238281 C 111.371094 40.1875 111.34375 40.136719 111.316406 40.085938 C 111.261719 39.945312 111.261719 39.945312 111.261719 39.660156 Z M 111.261719 39.660156 "/>
<path style=" stroke:none;fill-rule:nonzero;fill:rgb(0%,0%,0%);fill-opacity:1;" d="M 67.960938 39.660156 C 69.832031 39.660156 71.707031 39.660156 73.632812 39.660156 C 73.632812 39.988281 73.632812 40.320312 73.632812 40.660156 C 73.023438 40.660156 72.410156 40.660156 71.78125 40.660156 C 71.78125 41.671875 71.78125 42.683594 71.78125 43.726562 C 71.171875 43.726562 70.558594 43.726562 69.929688 43.726562 C 69.929688 42.714844 69.929688 41.703125 69.929688 40.660156 C 69.28125 40.660156 68.628906 40.660156 67.960938 40.660156 C 67.960938 40.328125 67.960938 40 67.960938 39.660156 Z M 67.960938 39.660156 "/>
</g>
</svg>
