<?xml version="1.0" encoding="UTF-8"?>
<svg xmlns="http://www.w3.org/2000/svg" xmlns:xlink="http://www.w3.org/1999/xlink" width="200px" height="52px" viewBox="0 0 200 52" version="1.1">
<g id="surface1">
<path style=" stroke:none;fill-rule:nonzero;fill:rgb(86.27451%,70.980392%,33.72549%);fill-opacity:1;" d="M 65.746094 15.40625 C 66.972656 15.40625 68.203125 15.40625 69.464844 15.40625 C 69.464844 17.738281 69.464844 20.066406 69.464844 22.46875 C 71.683594 22.46875 73.902344 22.46875 76.183594 22.46875 C 76.183594 20.140625 76.183594 17.808594 76.183594 15.40625 C 77.414062 15.40625 78.640625 15.40625 79.902344 15.40625 C 79.902344 17.738281 79.902344 20.066406 79.902344 22.46875 C 82.285156 22.433594 82.285156 22.433594 84.664062 22.386719 C 86.65625 22.359375 88.066406 22.488281 89.632812 23.28125 C 89.972656 23.453125 90.335938 23.601562 90.703125 23.753906 C 90.363281 23.96875 90.019531 24.125 89.601562 24.28125 C 89.484375 24.324219 89.367188 24.371094 89.246094 24.414062 C 89.125 24.460938 89.003906 24.503906 88.878906 24.550781 C 88.636719 24.640625 88.394531 24.730469 88.15625 24.820312 C 88.046875 24.859375 87.941406 24.902344 87.832031 24.941406 C 87.59375 25.027344 87.59375 25.027344 87.460938 25.109375 C 84.96875 25.109375 82.472656 25.109375 79.902344 25.109375 C 79.902344 28.898438 79.902344 32.6875 79.902344 36.59375 C 78.675781 36.59375 77.449219 36.59375 76.183594 36.59375 C 76.183594 32.804688 76.183594 29.011719 76.183594 25.109375 C 73.96875 25.109375 71.75 25.109375 69.464844 25.109375 C 69.464844 28.898438 69.464844 32.6875 69.464844 36.59375 C 68.238281 36.59375 67.011719 36.59375 65.746094 36.59375 C 65.746094 32.804688 65.746094 29.011719 65.746094 25.109375 C 60.363281 25.109375 54.976562 25.109375 49.429688 25.109375 C 49.429688 25.957031 49.429688 26.804688 49.429688 27.675781 C 53.902344 27.675781 58.378906 27.675781 62.988281 27.675781 C 62.988281 30.617188 62.988281 33.5625 62.988281 36.59375 C 55.03125 36.59375 47.070312 36.59375 38.871094 36.59375 C 39.058594 36.371094 39.183594 36.246094 39.449219 36.070312 C 39.546875 36.003906 39.546875 36.003906 39.644531 35.9375 C 39.78125 35.847656 39.914062 35.757812 40.050781 35.667969 C 40.117188 35.625 40.179688 35.582031 40.246094 35.539062 C 40.304688 35.5 40.363281 35.460938 40.421875 35.421875 C 40.585938 35.300781 40.585938 35.300781 40.550781 35.09375 C 40.398438 34.96875 40.398438 34.96875 40.183594 34.84375 C 40.070312 34.773438 40.070312 34.773438 39.953125 34.703125 C 39.875 34.652344 39.792969 34.605469 39.710938 34.554688 C 39.554688 34.457031 39.398438 34.363281 39.238281 34.265625 C 39.167969 34.222656 39.097656 34.179688 39.027344 34.136719 C 38.871094 34.023438 38.871094 34.023438 38.871094 33.882812 C 45.640625 33.882812 52.414062 33.882812 59.386719 33.882812 C 59.386719 32.703125 59.386719 31.527344 59.386719 30.316406 C 54.875 30.316406 50.359375 30.316406 45.710938 30.316406 C 45.710938 27.726562 45.710938 25.136719 45.710938 22.46875 C 52.324219 22.46875 58.933594 22.46875 65.746094 22.46875 C 65.746094 20.140625 65.746094 17.808594 65.746094 15.40625 Z M 65.746094 15.40625 "/>
<path style=" stroke:none;fill-rule:nonzero;fill:rgb(86.666667%,71.372549%,33.72549%);fill-opacity:1;" d="M 65.746094 15.40625 C 66.972656 15.40625 68.203125 15.40625 69.464844 15.40625 C 69.464844 17.738281 69.464844 20.066406 69.464844 22.46875 C 71.683594 22.46875 73.902344 22.46875 76.183594 22.46875 C 76.183594 20.140625 76.183594 17.808594 76.183594 15.40625 C 77.414062 15.40625 78.640625 15.40625 79.902344 15.40625 C 79.902344 17.738281 79.902344 20.066406 79.902344 22.46875 C 82.285156 22.433594 82.285156 22.433594 84.664062 22.386719 C 86.65625 22.359375 88.066406 22.488281 89.632812 23.28125 C 89.972656 23.453125 90.335938 23.601562 90.703125 23.753906 C 90.363281 23.96875 90.019531 24.125 89.601562 24.28125 C 89.484375 24.324219 89.367188 24.371094 89.246094 24.414062 C 89.066406 24.480469 89.066406 24.480469 88.878906 24.550781 C 88.636719 24.640625 88.394531 24.730469 88.15625 24.820312 C 88.046875 24.859375 87.941406 24.902344 87.832031 24.941406 C 87.59375 25.027344 87.59375 25.027344 87.460938 25.109375 C 84.96875 25.109375 82.472656 25.109375 79.902344 25.109375 C 79.902344 28.898438 79.902344 32.6875 79.902344 36.59375 C 78.675781 36.59375 77.449219 36.59375 76.183594 36.59375 C 76.183594 32.804688 76.183594 29.011719 76.183594 25.109375 C 73.96875 25.109375 71.75 25.109375 69.464844 25.109375 C 69.425781 25.085938 69.386719 25.0625 69.347656 25.035156 C 68.160156 25.035156 66.96875 25.035156 65.746094 25.035156 C 65.746094 21.859375 65.746094 18.679688 65.746094 15.40625 Z M 65.746094 15.40625 "/>
<path style=" stroke:none;fill-rule:nonzero;fill:rgb(0%,0%,0%);fill-opacity:1;" d="M 59.386719 30.246094 C 60.574219 30.246094 61.761719 30.246094 62.988281 30.246094 C 62.988281 32.339844 62.988281 34.433594 62.988281 36.59375 C 55.03125 36.59375 47.070312 36.59375 38.871094 36.59375 C 39.058594 36.371094 39.183594 36.246094 39.449219 36.070312 C 39.515625 36.023438 39.578125 35.980469 39.644531 35.9375 C 39.78125 35.847656 39.914062 35.757812 40.050781 35.667969 C 40.148438 35.605469 40.148438 35.605469 40.246094 35.539062 C 40.304688 35.5 40.363281 35.460938 40.421875 35.421875 C 40.585938 35.300781 40.585938 35.300781 40.550781 35.09375 C 40.398438 34.96875 40.398438 34.96875 40.183594 34.84375 C 40.109375 34.796875 40.03125 34.75 39.953125 34.703125 C 39.875 34.652344 39.792969 34.605469 39.710938 34.554688 C 39.554688 34.457031 39.398438 34.363281 39.238281 34.265625 C 39.167969 34.222656 39.097656 34.179688 39.027344 34.136719 C 38.871094 34.023438 38.871094 34.023438 38.871094 33.882812 C 45.640625 33.882812 52.414062 33.882812 59.386719 33.882812 C 59.386719 32.679688 59.386719 31.480469 59.386719 30.246094 Z M 59.386719 30.246094 "/>
<path style=" stroke:none;fill-rule:nonzero;fill:rgb(0%,0%,0%);fill-opacity:1;" d="M 149.25 28.460938 C 150.398438 28.460938 151.546875 28.460938 152.730469 28.460938 C 153.914062 29.167969 153.914062 29.167969 154.207031 29.492188 C 154.273438 29.5625 154.339844 29.632812 154.40625 29.703125 C 154.472656 29.773438 154.535156 29.847656 154.605469 29.917969 C 154.742188 30.058594 154.882812 30.195312 155.027344 30.332031 C 155.289062 30.589844 155.546875 30.847656 155.792969 31.109375 C 156.34375 31.664062 156.941406 32.199219 157.527344 32.742188 C 157.566406 31.328125 157.609375 29.917969 157.648438 28.460938 C 158.796875 28.460938 159.945312 28.460938 161.128906 28.460938 C 161.128906 30.910156 161.128906 33.355469 161.128906 35.878906 C 159.980469 35.878906 158.832031 35.878906 157.648438 35.878906 C 156.464844 35.152344 156.464844 35.152344 156.171875 34.820312 C 156.105469 34.746094 156.039062 34.675781 155.972656 34.601562 C 155.90625 34.527344 155.839844 34.457031 155.773438 34.382812 C 155.632812 34.238281 155.492188 34.097656 155.351562 33.957031 C 155.089844 33.691406 154.832031 33.425781 154.582031 33.160156 C 154.050781 32.621094 153.441406 32.113281 152.847656 31.597656 C 152.808594 33.011719 152.769531 34.425781 152.730469 35.878906 C 151.582031 35.878906 150.433594 35.878906 149.25 35.878906 C 149.25 33.429688 149.25 30.984375 149.25 28.460938 Z M 149.25 28.460938 "/>
<path style=" stroke:none;fill-rule:nonzero;fill:rgb(0%,0%,0%);fill-opacity:1;" d="M 104.019531 16.09375 C 104.175781 16.09375 104.328125 16.09375 104.488281 16.089844 C 105.9375 16.09375 107.324219 16.230469 108.449219 16.8125 C 109.429688 17.417969 109.898438 18.289062 109.898438 19.117188 C 108.75 19.117188 107.601562 19.117188 106.417969 19.117188 C 106.179688 18.835938 105.945312 18.550781 105.699219 18.261719 C 104.960938 17.929688 104.207031 17.902344 103.300781 17.976562 C 102.914062 18.042969 102.773438 18.097656 102.460938 18.261719 C 102.332031 18.519531 102.332031 18.519531 102.339844 18.761719 C 102.839844 18.96875 103.324219 19.03125 103.917969 19.089844 C 104.113281 19.109375 104.304688 19.128906 104.5 19.148438 C 104.800781 19.179688 105.105469 19.210938 105.40625 19.238281 C 108.367188 19.53125 108.367188 19.53125 109.261719 20.199219 C 109.800781 20.679688 109.761719 21.269531 109.65625 21.828125 C 109.355469 22.519531 108.785156 23.023438 107.785156 23.414062 C 106.589844 23.804688 105.359375 23.859375 104.019531 23.851562 C 103.878906 23.851562 103.734375 23.851562 103.589844 23.855469 C 102.1875 23.851562 100.8125 23.726562 99.699219 23.183594 C 98.597656 22.484375 98.296875 21.765625 98.140625 20.828125 C 99.289062 20.828125 100.4375 20.828125 101.621094 20.828125 C 101.816406 21.0625 102.015625 21.300781 102.21875 21.542969 C 102.921875 21.953125 103.433594 21.992188 104.382812 21.984375 C 104.949219 21.960938 105.289062 21.851562 105.691406 21.621094 C 105.839844 21.472656 105.839844 21.472656 105.839844 21.289062 C 105.65625 21.0625 105.453125 21.035156 105.066406 20.953125 C 104.25 20.820312 103.402344 20.75 102.570312 20.664062 C 101.15625 20.523438 99.832031 20.367188 98.859375 19.6875 C 98.316406 19.152344 98.222656 18.589844 98.460938 17.988281 C 98.839844 17.285156 99.476562 16.804688 100.539062 16.425781 C 101.691406 16.132812 102.773438 16.085938 104.019531 16.09375 Z M 104.019531 16.09375 "/>
<path style=" stroke:none;fill-rule:nonzero;fill:rgb(0%,0%,0%);fill-opacity:1;" d="M 136.414062 28.460938 C 139.9375 28.460938 143.460938 28.460938 147.089844 28.460938 C 147.089844 29.050781 147.089844 29.636719 147.089844 30.246094 C 144.675781 30.246094 142.261719 30.246094 139.773438 30.246094 C 139.773438 30.574219 139.773438 30.902344 139.773438 31.242188 C 141.988281 31.242188 144.207031 31.242188 146.492188 31.242188 C 146.492188 31.855469 146.492188 32.46875 146.492188 33.097656 C 144.273438 33.097656 142.054688 33.097656 139.773438 33.097656 C 139.773438 33.425781 139.773438 33.757812 139.773438 34.097656 C 142.1875 34.097656 144.601562 34.097656 147.089844 34.097656 C 147.089844 34.683594 147.089844 35.273438 147.089844 35.878906 C 143.566406 35.878906 140.042969 35.878906 136.414062 35.878906 C 136.414062 33.429688 136.414062 30.984375 136.414062 28.460938 Z M 136.414062 28.460938 "/>
<path style=" stroke:none;fill-rule:nonzero;fill:rgb(0%,0%,0%);fill-opacity:1;" d="M 136.054688 16.40625 C 138.101562 16.398438 138.101562 16.398438 140.191406 16.386719 C 140.621094 16.386719 141.050781 16.382812 141.492188 16.378906 C 142.023438 16.378906 142.023438 16.378906 142.269531 16.378906 C 142.441406 16.378906 142.613281 16.378906 142.785156 16.375 C 143.917969 16.367188 144.785156 16.371094 145.679688 16.828125 C 145.746094 16.875 145.808594 16.921875 145.875 16.96875 C 145.941406 17.011719 146.007812 17.058594 146.078125 17.105469 C 146.617188 17.59375 146.539062 18.144531 146.542969 18.707031 C 146.546875 18.796875 146.550781 18.886719 146.554688 18.980469 C 146.5625 19.640625 146.429688 20.144531 145.636719 20.625 C 145.410156 20.746094 145.175781 20.863281 144.929688 20.972656 C 145.007812 21.09375 145.007812 21.09375 145.085938 21.21875 C 145.273438 21.519531 145.460938 21.820312 145.648438 22.121094 C 145.730469 22.253906 145.8125 22.382812 145.894531 22.511719 C 146.011719 22.699219 146.125 22.886719 146.242188 23.074219 C 146.28125 23.132812 146.316406 23.191406 146.355469 23.253906 C 146.609375 23.664062 146.609375 23.664062 146.609375 23.824219 C 145.382812 23.824219 144.15625 23.824219 142.890625 23.824219 C 142.460938 23.136719 142.03125 22.449219 141.640625 21.75 C 141.609375 21.695312 141.578125 21.640625 141.546875 21.585938 C 141.332031 21.203125 141.332031 21.203125 141.332031 21.042969 C 140.699219 21.042969 140.066406 21.042969 139.414062 21.042969 C 139.414062 21.960938 139.414062 22.878906 139.414062 23.824219 C 138.304688 23.824219 137.195312 23.824219 136.054688 23.824219 C 136.054688 21.375 136.054688 18.929688 136.054688 16.40625 Z M 139.414062 18.1875 C 139.414062 18.542969 139.414062 18.894531 139.414062 19.257812 C 139.941406 19.265625 140.472656 19.273438 141 19.277344 C 141.152344 19.28125 141.304688 19.28125 141.457031 19.285156 C 141.675781 19.285156 141.675781 19.285156 141.894531 19.289062 C 142.027344 19.289062 142.164062 19.289062 142.300781 19.292969 C 142.734375 19.25 142.871094 19.179688 143.132812 18.972656 C 143.199219 18.699219 143.21875 18.546875 142.933594 18.316406 C 142.566406 18.152344 142.355469 18.15625 141.894531 18.160156 C 141.679688 18.164062 141.679688 18.164062 141.457031 18.164062 C 141.230469 18.167969 141.230469 18.167969 141 18.171875 C 140.773438 18.171875 140.773438 18.171875 140.539062 18.175781 C 140.164062 18.179688 139.789062 18.183594 139.414062 18.1875 Z M 139.414062 18.1875 "/>
<path style=" stroke:none;fill-rule:nonzero;fill:rgb(0%,0%,0%);fill-opacity:1;" d="M 97.0625 28.460938 C 98.207031 28.460938 99.355469 28.460938 100.539062 28.460938 C 100.539062 29.378906 100.539062 30.296875 100.539062 31.242188 C 102.003906 31.242188 103.46875 31.242188 104.980469 31.242188 C 104.980469 30.324219 104.980469 29.40625 104.980469 28.460938 C 106.085938 28.460938 107.195312 28.460938 108.339844 28.460938 C 108.339844 30.910156 108.339844 33.355469 108.339844 35.878906 C 107.230469 35.878906 106.121094 35.878906 104.980469 35.878906 C 104.980469 34.960938 104.980469 34.042969 104.980469 33.097656 C 103.515625 33.097656 102.050781 33.097656 100.539062 33.097656 C 100.539062 34.015625 100.539062 34.933594 100.539062 35.878906 C 99.390625 35.878906 98.242188 35.878906 97.0625 35.878906 C 97.0625 33.429688 97.0625 30.984375 97.0625 28.460938 Z M 97.0625 28.460938 "/>
<path style=" stroke:none;fill-rule:nonzero;fill:rgb(0%,0%,0%);fill-opacity:1;" d="M 148.648438 16.40625 C 149.796875 16.40625 150.945312 16.40625 152.128906 16.40625 C 152.128906 17.347656 152.128906 18.289062 152.128906 19.257812 C 152.925781 19.171875 152.925781 19.171875 153.191406 18.964844 C 153.246094 18.90625 153.300781 18.84375 153.355469 18.78125 C 153.449219 18.679688 153.449219 18.679688 153.542969 18.574219 C 153.605469 18.5 153.667969 18.429688 153.734375 18.355469 C 153.925781 18.140625 154.117188 17.925781 154.316406 17.714844 C 154.472656 17.539062 154.609375 17.367188 154.742188 17.183594 C 155.285156 16.480469 155.285156 16.480469 155.839844 16.351562 C 156.503906 16.273438 157.167969 16.308594 157.835938 16.339844 C 158.039062 16.34375 158.242188 16.347656 158.445312 16.355469 C 158.941406 16.367188 159.433594 16.382812 159.929688 16.40625 C 159.851562 16.632812 159.71875 16.800781 159.519531 17 C 159.457031 17.0625 159.398438 17.121094 159.335938 17.183594 C 159.269531 17.25 159.203125 17.316406 159.132812 17.382812 C 159.066406 17.449219 158.996094 17.519531 158.925781 17.589844 C 158.578125 17.9375 158.226562 18.28125 157.867188 18.628906 C 157.742188 18.75 157.617188 18.871094 157.488281 18.996094 C 157.328125 19.152344 157.164062 19.308594 157 19.464844 C 156.925781 19.535156 156.851562 19.605469 156.777344 19.679688 C 156.710938 19.746094 156.644531 19.808594 156.574219 19.871094 C 156.429688 20.035156 156.429688 20.035156 156.460938 20.183594 C 156.609375 20.386719 156.789062 20.574219 156.980469 20.765625 C 157.023438 20.804688 157.0625 20.847656 157.105469 20.890625 C 157.242188 21.027344 157.378906 21.164062 157.511719 21.300781 C 157.605469 21.394531 157.699219 21.488281 157.792969 21.582031 C 158.371094 22.164062 158.957031 22.746094 159.5625 23.316406 C 159.929688 23.667969 159.929688 23.667969 159.929688 23.824219 C 156.226562 24.074219 156.226562 24.074219 155.269531 23.6875 C 154.742188 23.328125 154.457031 22.902344 154.183594 22.460938 C 153.984375 22.160156 153.707031 21.898438 153.410156 21.632812 C 152.96875 21.207031 152.96875 21.207031 152.96875 21.042969 C 152.691406 21.042969 152.414062 21.042969 152.128906 21.042969 C 152.128906 21.960938 152.128906 22.878906 152.128906 23.824219 C 150.980469 23.824219 149.832031 23.824219 148.648438 23.824219 C 148.648438 21.375 148.648438 18.929688 148.648438 16.40625 Z M 148.648438 16.40625 "/>
<path style=" stroke:none;fill-rule:nonzero;fill:rgb(0%,0%,0%);fill-opacity:1;" d="M 113.855469 28.460938 C 115.519531 28.460938 117.183594 28.460938 118.894531 28.460938 C 119.824219 30.140625 120.730469 31.820312 121.613281 33.507812 C 121.691406 33.65625 121.773438 33.804688 121.851562 33.953125 C 121.996094 34.230469 122.144531 34.511719 122.292969 34.792969 C 122.359375 34.921875 122.359375 34.921875 122.429688 35.050781 C 122.46875 35.128906 122.507812 35.207031 122.550781 35.285156 C 122.585938 35.355469 122.621094 35.421875 122.660156 35.492188 C 122.734375 35.664062 122.734375 35.664062 122.734375 35.878906 C 121.546875 35.878906 120.359375 35.878906 119.136719 35.878906 C 118.710938 35.207031 118.710938 35.207031 118.574219 34.964844 C 118.542969 34.914062 118.511719 34.863281 118.480469 34.808594 C 118.417969 34.667969 118.417969 34.667969 118.417969 34.453125 C 117.070312 34.453125 115.722656 34.453125 114.335938 34.453125 C 114.257812 34.6875 114.179688 34.921875 114.097656 35.164062 C 113.859375 35.519531 113.859375 35.519531 113.617188 35.878906 C 112.429688 35.878906 111.242188 35.878906 110.019531 35.878906 C 110.289062 35.15625 110.289062 35.15625 110.472656 34.8125 C 110.535156 34.695312 110.535156 34.695312 110.597656 34.574219 C 110.644531 34.492188 110.6875 34.410156 110.734375 34.328125 C 110.804688 34.191406 110.875 34.058594 110.949219 33.925781 C 111.023438 33.785156 111.097656 33.644531 111.175781 33.5 C 111.332031 33.210938 111.484375 32.921875 111.640625 32.632812 C 111.796875 32.34375 111.949219 32.054688 112.105469 31.765625 C 112.519531 30.992188 112.929688 30.21875 113.339844 29.441406 C 113.511719 29.117188 113.679688 28.792969 113.855469 28.460938 Z M 116.375 30.816406 C 115.695312 31.714844 115.695312 31.714844 115.417969 32.667969 C 116.089844 32.667969 116.761719 32.667969 117.457031 32.667969 C 117.140625 32.058594 116.824219 31.445312 116.496094 30.816406 C 116.457031 30.816406 116.417969 30.816406 116.375 30.816406 Z M 116.375 30.816406 "/>
<path style=" stroke:none;fill-rule:nonzero;fill:rgb(0%,0%,0%);fill-opacity:1;" d="M 125.496094 16.40625 C 127.117188 16.40625 128.742188 16.40625 130.414062 16.40625 C 130.820312 17.046875 130.820312 17.046875 130.988281 17.363281 C 131.027344 17.4375 131.066406 17.507812 131.105469 17.582031 C 131.148438 17.65625 131.1875 17.734375 131.230469 17.8125 C 131.296875 17.933594 131.296875 17.933594 131.363281 18.054688 C 131.503906 18.316406 131.644531 18.578125 131.785156 18.839844 C 131.882812 19.019531 131.980469 19.199219 132.078125 19.378906 C 132.363281 19.910156 132.648438 20.441406 132.933594 20.972656 C 132.972656 21.046875 133.015625 21.125 133.058594 21.203125 C 133.269531 21.597656 133.484375 21.996094 133.695312 22.394531 C 133.757812 22.507812 133.820312 22.625 133.882812 22.742188 C 133.964844 22.898438 134.050781 23.058594 134.132812 23.214844 C 134.179688 23.300781 134.226562 23.390625 134.273438 23.480469 C 134.375 23.683594 134.375 23.683594 134.375 23.824219 C 133.144531 23.824219 131.917969 23.824219 130.652344 23.824219 C 130.535156 23.617188 130.417969 23.40625 130.292969 23.191406 C 130.257812 23.125 130.21875 23.058594 130.179688 22.992188 C 130.152344 22.941406 130.121094 22.886719 130.089844 22.835938 C 130.0625 22.78125 130.03125 22.730469 130 22.675781 C 129.933594 22.539062 129.933594 22.539062 129.933594 22.398438 C 128.628906 22.398438 127.320312 22.398438 125.976562 22.398438 C 125.855469 22.65625 125.738281 22.914062 125.613281 23.183594 C 125.496094 23.394531 125.378906 23.605469 125.253906 23.824219 C 124.027344 23.824219 122.800781 23.824219 121.535156 23.824219 C 122.097656 22.695312 122.6875 21.574219 123.289062 20.453125 C 123.421875 20.207031 123.554688 19.957031 123.683594 19.710938 C 124.273438 18.605469 124.871094 17.503906 125.496094 16.40625 Z M 127.894531 18.6875 C 127.734375 18.996094 127.574219 19.304688 127.414062 19.613281 C 127.367188 19.699219 127.324219 19.789062 127.277344 19.878906 C 127.234375 19.960938 127.1875 20.042969 127.144531 20.128906 C 127.105469 20.207031 127.0625 20.285156 127.023438 20.363281 C 126.929688 20.523438 126.929688 20.523438 126.933594 20.613281 C 127.609375 20.613281 128.28125 20.613281 128.972656 20.613281 C 128.6875 19.964844 128.355469 19.328125 128.015625 18.6875 C 127.976562 18.6875 127.933594 18.6875 127.894531 18.6875 Z M 127.894531 18.6875 "/>
<path style=" stroke:none;fill-rule:nonzero;fill:rgb(0%,0%,0%);fill-opacity:1;" d="M 121.894531 28.460938 C 123.121094 28.460938 124.351562 28.460938 125.613281 28.460938 C 126.507812 30.097656 127.386719 31.738281 128.253906 33.382812 C 128.507812 33.15625 128.617188 32.96875 128.753906 32.710938 C 128.777344 32.667969 128.800781 32.621094 128.828125 32.574219 C 128.910156 32.421875 128.988281 32.269531 129.070312 32.117188 C 129.125 32.011719 129.179688 31.90625 129.238281 31.800781 C 129.386719 31.527344 129.53125 31.25 129.679688 30.972656 C 129.855469 30.640625 130.03125 30.308594 130.210938 29.976562 C 130.476562 29.46875 130.746094 28.964844 131.015625 28.460938 C 132.242188 28.460938 133.46875 28.460938 134.734375 28.460938 C 134.328125 29.34375 134.328125 29.34375 134.128906 29.714844 C 134.085938 29.796875 134.039062 29.878906 133.996094 29.964844 C 133.921875 30.097656 133.921875 30.097656 133.851562 30.234375 C 133.800781 30.328125 133.75 30.421875 133.699219 30.515625 C 133.566406 30.765625 133.433594 31.011719 133.300781 31.261719 C 133.089844 31.652344 132.878906 32.046875 132.667969 32.4375 C 132.617188 32.535156 132.566406 32.628906 132.511719 32.726562 C 132.226562 33.265625 131.9375 33.804688 131.660156 34.34375 C 131.632812 34.390625 131.609375 34.441406 131.582031 34.492188 C 131.464844 34.722656 131.34375 34.953125 131.226562 35.183594 C 131.183594 35.265625 131.140625 35.347656 131.097656 35.429688 C 131.042969 35.539062 131.042969 35.539062 130.988281 35.648438 C 130.894531 35.808594 130.894531 35.808594 130.773438 35.878906 C 130.410156 35.886719 130.050781 35.886719 129.6875 35.886719 C 129.578125 35.886719 129.46875 35.886719 129.355469 35.886719 C 129.007812 35.886719 128.65625 35.882812 128.308594 35.882812 C 128.070312 35.882812 127.832031 35.882812 127.597656 35.882812 C 127.015625 35.882812 126.4375 35.878906 125.855469 35.878906 C 125.488281 35.324219 125.191406 34.753906 124.886719 34.1875 C 124.828125 34.078125 124.765625 33.964844 124.707031 33.855469 C 124.582031 33.625 124.460938 33.394531 124.335938 33.160156 C 124.179688 32.871094 124.023438 32.578125 123.863281 32.285156 C 123.3125 31.257812 122.757812 30.226562 122.226562 29.191406 C 122.191406 29.125 122.15625 29.058594 122.121094 28.988281 C 121.894531 28.542969 121.894531 28.542969 121.894531 28.460938 Z M 121.894531 28.460938 "/>
<path style=" stroke:none;fill-rule:nonzero;fill:rgb(0%,0%,0%);fill-opacity:1;" d="M 76.183594 25.109375 C 77.414062 25.109375 78.640625 25.109375 79.902344 25.109375 C 79.902344 28.898438 79.902344 32.6875 79.902344 36.59375 C 78.675781 36.59375 77.449219 36.59375 76.183594 36.59375 C 76.183594 32.804688 76.183594 29.011719 76.183594 25.109375 Z M 76.183594 25.109375 "/>
<path style=" stroke:none;fill-rule:nonzero;fill:rgb(0%,0%,0%);fill-opacity:1;" d="M 65.746094 25.109375 C 66.972656 25.109375 68.203125 25.109375 69.464844 25.109375 C 69.464844 28.898438 69.464844 32.6875 69.464844 36.59375 C 68.238281 36.59375 67.011719 36.59375 65.746094 36.59375 C 65.746094 32.804688 65.746094 29.011719 65.746094 25.109375 Z M 65.746094 25.109375 "/>
<path style=" stroke:none;fill-rule:nonzero;fill:rgb(0%,0%,0%);fill-opacity:1;" d="M 111.21875 16.40625 C 114.742188 16.40625 118.265625 16.40625 121.894531 16.40625 C 121.894531 16.996094 121.894531 17.582031 121.894531 18.1875 C 120.707031 18.1875 119.519531 18.1875 118.296875 18.1875 C 118.296875 20.050781 118.296875 21.910156 118.296875 23.824219 C 117.148438 23.824219 116 23.824219 114.816406 23.824219 C 114.816406 21.964844 114.816406 20.105469 114.816406 18.1875 C 113.628906 18.1875 112.441406 18.1875 111.21875 18.1875 C 111.21875 17.601562 111.21875 17.011719 111.21875 16.40625 Z M 111.21875 16.40625 "/>
<path style=" stroke:none;fill-rule:nonzero;fill:rgb(0%,0%,0%);fill-opacity:1;" d="M 76.183594 15.40625 C 77.414062 15.40625 78.640625 15.40625 79.902344 15.40625 C 79.902344 17.738281 79.902344 20.066406 79.902344 22.46875 C 78.675781 22.46875 77.449219 22.46875 76.183594 22.46875 C 76.183594 20.140625 76.183594 17.808594 76.183594 15.40625 Z M 76.183594 15.40625 "/>
<path style=" stroke:none;fill-rule:nonzero;fill:rgb(0%,0%,0%);fill-opacity:1;" d="M 65.746094 15.40625 C 66.972656 15.40625 68.203125 15.40625 69.464844 15.40625 C 69.464844 17.738281 69.464844 20.066406 69.464844 22.46875 C 68.238281 22.46875 67.011719 22.46875 65.746094 22.46875 C 65.746094 20.140625 65.746094 17.808594 65.746094 15.40625 Z M 65.746094 15.40625 "/>
<path style=" stroke:none;fill-rule:nonzero;fill:rgb(86.666667%,71.372549%,33.72549%);fill-opacity:1;" d="M 79.902344 22.46875 C 80.847656 22.449219 81.789062 22.429688 82.734375 22.421875 C 83.171875 22.417969 83.613281 22.410156 84.050781 22.398438 C 86.234375 22.347656 87.886719 22.398438 89.632812 23.28125 C 89.972656 23.453125 90.335938 23.601562 90.703125 23.753906 C 90.363281 23.96875 90.019531 24.125 89.601562 24.28125 C 89.425781 24.347656 89.425781 24.347656 89.246094 24.414062 C 89.125 24.460938 89.003906 24.503906 88.878906 24.550781 C 88.636719 24.640625 88.394531 24.730469 88.15625 24.820312 C 88.046875 24.859375 87.941406 24.902344 87.832031 24.941406 C 87.59375 25.027344 87.59375 25.027344 87.460938 25.109375 C 87.226562 25.113281 86.992188 25.117188 86.753906 25.117188 C 86.605469 25.117188 86.453125 25.117188 86.296875 25.117188 C 86.128906 25.117188 85.964844 25.117188 85.796875 25.117188 C 85.628906 25.113281 85.457031 25.113281 85.289062 25.113281 C 84.84375 25.113281 84.398438 25.113281 83.949219 25.113281 C 83.414062 25.113281 82.878906 25.113281 82.34375 25.113281 C 81.53125 25.109375 80.71875 25.109375 79.902344 25.109375 C 79.902344 24.238281 79.902344 23.367188 79.902344 22.46875 Z M 79.902344 22.46875 "/>
<path style=" stroke:none;fill-rule:nonzero;fill:rgb(87.843137%,74.901961%,48.235294%);fill-opacity:1;" d="M 76.183594 22.46875 C 77.414062 22.46875 78.640625 22.46875 79.902344 22.46875 C 79.902344 23.339844 79.902344 24.210938 79.902344 25.109375 C 78.675781 25.109375 77.449219 25.109375 76.183594 25.109375 C 76.183594 24.238281 76.183594 23.367188 76.183594 22.46875 Z M 76.183594 22.46875 "/>
<path style=" stroke:none;fill-rule:nonzero;fill:rgb(88.627451%,76.078431%,48.627451%);fill-opacity:1;" d="M 65.746094 22.46875 C 66.972656 22.46875 68.203125 22.46875 69.464844 22.46875 C 69.425781 23.316406 69.386719 24.164062 69.347656 25.035156 C 68.160156 25.035156 66.96875 25.035156 65.746094 25.035156 C 65.746094 24.191406 65.746094 23.34375 65.746094 22.46875 Z M 65.746094 22.46875 "/>
</g>
</svg>
