<?xml version="1.0" encoding="UTF-8"?>
<svg version="1.1" xmlns="http://www.w3.org/2000/svg" width="1667" height="729">
<path d="M0 0 C10.23 0 20.46 0 31 0 C31 32.67 31 65.34 31 99 C49.48 99 67.96 99 87 99 C87 66.33 87 33.66 87 0 C97.23 0 107.46 0 118 0 C118 32.67 118 65.34 118 99 C137.83492831 98.48860221 137.83492831 98.48860221 157.66503906 97.82885742 C174.26357996 97.46429488 186.01802243 99.28156268 199.07507324 110.38174438 C201.92354834 112.77641255 204.94996872 114.87063372 208 117 C205.17718331 120.00692236 202.32519579 122.23383623 198.83203125 124.41796875 C197.85685547 125.03220703 196.88167969 125.64644531 195.87695312 126.27929688 C194.86568359 126.90900391 193.85441406 127.53871094 192.8125 128.1875 C190.79754466 129.45081478 188.78318806 130.71508521 186.76953125 131.98046875 C185.87854736 132.53629639 184.98756348 133.09212402 184.06958008 133.66479492 C182.09219677 134.83752306 182.09219677 134.83752306 181 136 C160.21 136 139.42 136 118 136 C118 189.13 118 242.26 118 297 C107.77 297 97.54 297 87 297 C87 243.87 87 190.74 87 136 C68.52 136 50.04 136 31 136 C31 189.13 31 242.26 31 297 C20.77 297 10.54 297 0 297 C0 243.87 0 190.74 0 136 C-44.88 136 -89.76 136 -136 136 C-136 147.88 -136 159.76 -136 172 C-98.71 172 -61.42 172 -23 172 C-23 213.25 -23 254.5 -23 297 C-89.33 297 -155.66 297 -224 297 C-222.44447428 293.88894856 -221.40577141 292.12362479 -219.1796875 289.65234375 C-218.37724609 288.74452148 -218.37724609 288.74452148 -217.55859375 287.81835938 C-216.43077947 286.55839981 -215.30054421 285.30060336 -214.16796875 284.04492188 C-213.63558594 283.44099609 -213.10320312 282.83707031 -212.5546875 282.21484375 C-212.06468262 281.66948975 -211.57467773 281.12413574 -211.06982422 280.56225586 C-209.71749397 278.90303431 -209.71749397 278.90303431 -210 276 C-211.29509377 274.22984814 -211.29509377 274.22984814 -213.0625 272.49609375 C-214.00996094 271.50899414 -214.00996094 271.50899414 -214.9765625 270.50195312 C-215.64429688 269.82068359 -216.31203125 269.13941406 -217 268.4375 C-218.3168868 267.08629279 -219.6296206 265.73102141 -220.9375 264.37109375 C-221.52402344 263.77224365 -222.11054688 263.17339355 -222.71484375 262.55639648 C-224 261 -224 261 -224 259 C-167.57 259 -111.14 259 -53 259 C-53 242.5 -53 226 -53 209 C-90.62 209 -128.24 209 -167 209 C-167 172.7 -167 136.4 -167 99 C-111.89 99 -56.78 99 0 99 C0 66.33 0 33.66 0 0 Z " fill="#DCB556" transform="translate(548,216)"/>
<path d="M0 0 C10.23 0 20.46 0 31 0 C31 32.67 31 65.34 31 99 C49.48 99 67.96 99 87 99 C87 66.33 87 33.66 87 0 C97.23 0 107.46 0 118 0 C118 32.67 118 65.34 118 99 C137.83492831 98.48860221 137.83492831 98.48860221 157.66503906 97.82885742 C174.26357996 97.46429488 186.01802243 99.28156268 199.07507324 110.38174438 C201.92354834 112.77641255 204.94996872 114.87063372 208 117 C205.17718331 120.00692236 202.32519579 122.23383623 198.83203125 124.41796875 C197.85685547 125.03220703 196.88167969 125.64644531 195.87695312 126.27929688 C194.36004883 127.22385742 194.36004883 127.22385742 192.8125 128.1875 C190.79754466 129.45081478 188.78318806 130.71508521 186.76953125 131.98046875 C185.87854736 132.53629639 184.98756348 133.09212402 184.06958008 133.66479492 C182.09219677 134.83752306 182.09219677 134.83752306 181 136 C160.21 136 139.42 136 118 136 C118 189.13 118 242.26 118 297 C107.77 297 97.54 297 87 297 C87 243.87 87 190.74 87 136 C68.52 136 50.04 136 31 136 C30.67 135.67 30.34 135.34 30 135 C20.1 135 10.2 135 0 135 C0 90.45 0 45.9 0 0 Z " fill="#DDB656" transform="translate(548,216)"/>
<path d="M0 0 C9.9 0 19.8 0 30 0 C30 29.37 30 58.74 30 89 C-36.33 89 -102.66 89 -171 89 C-169.44447428 85.88894856 -168.40577141 84.12362479 -166.1796875 81.65234375 C-165.64472656 81.04712891 -165.10976563 80.44191406 -164.55859375 79.81835938 C-163.43077947 78.55839981 -162.30054421 77.30060336 -161.16796875 76.04492188 C-160.36939453 75.1390332 -160.36939453 75.1390332 -159.5546875 74.21484375 C-159.06468262 73.66948975 -158.57467773 73.12413574 -158.06982422 72.56225586 C-156.71749397 70.90303431 -156.71749397 70.90303431 -157 68 C-158.29509377 66.22984814 -158.29509377 66.22984814 -160.0625 64.49609375 C-160.69414062 63.83802734 -161.32578125 63.17996094 -161.9765625 62.50195312 C-162.64429688 61.82068359 -163.31203125 61.13941406 -164 60.4375 C-165.3168868 59.08629279 -166.6296206 57.73102141 -167.9375 56.37109375 C-168.52402344 55.77224365 -169.11054688 55.17339355 -169.71484375 54.55639648 C-171 53 -171 53 -171 51 C-114.57 51 -58.14 51 0 51 C0 34.17 0 17.34 0 0 Z " fill="#000000" transform="translate(495,424)"/>
<path d="M0 0 C9.57 0 19.14 0 29 0 C38.8637204 9.88563977 38.8637204 9.88563977 41.3203125 14.45507812 C41.8659082 15.43935791 42.41150391 16.4236377 42.97363281 17.43774414 C43.51858398 18.42766357 44.06353516 19.41758301 44.625 20.4375 C45.78714841 22.37111369 46.95899967 24.29892988 48.140625 26.22070312 C50.33909258 29.82294622 52.47188869 33.44963942 54.54931641 37.12280273 C59.1160817 44.90090807 64.10005813 52.42736257 69 60 C69.33 40.2 69.66 20.4 70 0 C79.57 0 89.14 0 99 0 C99 34.32 99 68.64 99 104 C89.43 104 79.86 104 70 104 C60.13610335 93.82922657 60.13610335 93.82922657 57.6796875 89.140625 C57.1340918 88.13064453 56.58849609 87.12066406 56.02636719 86.08007812 C55.48141602 85.06365234 54.93646484 84.04722656 54.375 83 C53.21306839 81.00978642 52.04122247 79.02532685 50.859375 77.046875 C48.65896097 73.34807131 46.53228731 69.62206114 44.45068359 65.85546875 C40.01656302 58.33120472 34.94784279 51.19686225 30 44 C29.67 63.8 29.34 83.6 29 104 C19.43 104 9.86 104 0 104 C0 69.68 0 35.36 0 0 Z " fill="#000000" transform="translate(1244,399)"/>
<path d="M0 0 C1.2890625 -0.01160156 2.578125 -0.02320313 3.90625 -0.03515625 C15.99132399 0.00168849 27.54480053 1.91182304 36.9375 10.0546875 C45.10731545 18.54143544 49 30.75670528 49 42.375 C39.43 42.375 29.86 42.375 20 42.375 C18.02 38.415 16.04 34.455 14 30.375 C7.85685219 25.71468097 1.5616748 25.37022951 -6 26.375 C-9.19990219 27.29783869 -10.38715965 28.11053837 -13 30.375 C-14.0565109 34.00647485 -14.0565109 34.00647485 -14 37.375 C-9.83044162 40.30663282 -5.77958618 41.20143467 -0.83984375 41.98828125 C0.77547108 42.26972092 2.39070284 42.55163771 4.00585938 42.83398438 C6.52322929 43.26195921 9.04131022 43.68403221 11.5612793 44.09643555 C36.23097231 48.17602091 36.23097231 48.17602091 43.6875 57.5625 C48.19020382 64.29663227 47.86063324 72.55139872 47 80.375 C44.47146878 90.07496889 39.70969963 97.15743704 31.375 102.625 C21.42189701 108.09021141 11.17276677 108.85977609 0 108.75 C-1.18078125 108.76160156 -2.3615625 108.77320313 -3.578125 108.78515625 C-15.25934063 108.74656193 -26.74311979 107.01114697 -36 99.375 C-45.17313051 89.56705077 -47.6884087 79.490913 -49 66.375 C-39.43 66.375 -29.86 66.375 -20 66.375 C-18.35 69.675 -16.7 72.975 -15 76.375 C-9.13510211 82.12259993 -4.87719702 82.67031108 3.046875 82.59375 C7.76578451 82.24420115 10.58718758 80.74223783 13.9375 77.5 C15.1626119 75.38689843 15.1626119 75.38689843 15.1875 72.8125 C13.6550978 69.66704285 11.93695129 69.26175902 8.73510742 68.14038086 C1.93317801 66.23695778 -5.12939682 65.24676308 -12.08862305 64.07543945 C-23.86756109 62.07615691 -34.90125322 59.91799283 -43 50.375 C-47.5274383 42.90153846 -48.31074267 34.98249674 -46.33984375 26.55078125 C-43.1745783 16.72612614 -37.85192955 9.94730753 -29.015625 4.6640625 C-19.4030531 0.55506156 -10.38099934 -0.09342899 0 0 Z " fill="#000000" transform="translate(867,225.625)"/>
<path d="M0 0 C29.37 0 58.74 0 89 0 C89 8.25 89 16.5 89 25 C68.87 25 48.74 25 28 25 C28 29.62 28 34.24 28 39 C46.48 39 64.96 39 84 39 C84 47.58 84 56.16 84 65 C65.52 65 47.04 65 28 65 C28 69.62 28 74.24 28 79 C48.13 79 68.26 79 89 79 C89 87.25 89 95.5 89 104 C59.63 104 30.26 104 0 104 C0 69.68 0 35.36 0 0 Z " fill="#000000" transform="translate(1137,399)"/>
<path d="M0 0 C17.0775 -0.12375 17.0775 -0.12375 34.5 -0.25 C38.08166016 -0.28641602 41.66332031 -0.32283203 45.35351562 -0.36035156 C49.76074219 -0.37841797 49.76074219 -0.37841797 51.83044434 -0.3817749 C53.26181018 -0.38787746 54.69315673 -0.40186281 56.12438965 -0.42230225 C65.56789051 -0.55030694 72.7717632 -0.49956268 80.2421875 5.9296875 C80.78101563 6.57164062 81.31984375 7.21359375 81.875 7.875 C82.42929688 8.51179687 82.98359375 9.14859375 83.5546875 9.8046875 C88.05496164 16.64023902 87.40208687 24.38828509 87.4375 32.25 C87.47037109 33.52230469 87.50324219 34.79460937 87.53710938 36.10546875 C87.58944033 45.32523238 86.49466851 52.39152268 79.88842773 59.16503906 C77.97846674 60.86588952 76.04586239 62.46687235 74 64 C74.63615234 65.71098877 74.63615234 65.71098877 75.28515625 67.45654297 C76.85385688 71.67831586 78.41830057 75.90165546 79.98144531 80.12548828 C80.6593155 81.95534783 81.33834822 83.78477715 82.01855469 85.61376953 C82.99457951 88.23879257 83.96644911 90.86532112 84.9375 93.4921875 C85.24373291 94.31306854 85.54996582 95.13394958 85.86547852 95.97970581 C88 101.77225659 88 101.77225659 88 104 C77.77 104 67.54 104 57 104 C53.39933886 94.35022815 49.83402215 84.70410276 46.5625 74.9375 C46.30388184 74.17066895 46.04526367 73.40383789 45.77880859 72.61376953 C44 67.24808302 44 67.24808302 44 65 C38.72 65 33.44 65 28 65 C28 77.87 28 90.74 28 104 C18.76 104 9.52 104 0 104 C0 69.68 0 35.36 0 0 Z M28 25 C28 29.95 28 34.9 28 40 C32.41731521 40.1077394 36.83201394 40.18720629 41.25 40.25 C42.50425781 40.28351563 43.75851562 40.31703125 45.05078125 40.3515625 C46.85869141 40.37089844 46.85869141 40.37089844 48.703125 40.390625 C49.81333008 40.41157227 50.92353516 40.43251953 52.06738281 40.45410156 C55.68472231 39.89397407 56.83312539 38.90337939 59 36 C59.55405168 32.12163821 59.74438111 29.99739079 57.36230469 26.80566406 C54.29157031 24.45850082 52.53775411 24.53702351 48.703125 24.609375 C46.89521484 24.62871094 46.89521484 24.62871094 45.05078125 24.6484375 C43.16939453 24.69871094 43.16939453 24.69871094 41.25 24.75 C39.34541016 24.77707031 39.34541016 24.77707031 37.40234375 24.8046875 C34.26790742 24.85182188 31.1338587 24.92356442 28 25 Z " fill="#000000" transform="translate(1134,230)"/>
<path d="M0 0 C9.57 0 19.14 0 29 0 C29 12.87 29 25.74 29 39 C41.21 39 53.42 39 66 39 C66 26.13 66 13.26 66 0 C75.24 0 84.48 0 94 0 C94 34.32 94 68.64 94 104 C84.76 104 75.52 104 66 104 C66 91.13 66 78.26 66 65 C53.79 65 41.58 65 29 65 C29 77.87 29 90.74 29 104 C19.43 104 9.86 104 0 104 C0 69.68 0 35.36 0 0 Z " fill="#000000" transform="translate(809,399)"/>
<path d="M0 0 C9.57 0 19.14 0 29 0 C29 13.2 29 26.4 29 40 C35.64721223 38.78353449 35.64721223 38.78353449 37.84521484 35.8996582 C38.29590332 35.04202881 38.7465918 34.18439941 39.2109375 33.30078125 C39.99597656 31.85541992 39.99597656 31.85541992 40.796875 30.38085938 C41.31765625 29.36830078 41.8384375 28.35574219 42.375 27.3125 C43.97240595 24.31636044 45.57772178 21.32785132 47.22387695 18.3581543 C48.53310194 15.88277426 49.66679791 13.48032965 50.76635742 10.91723633 C55.31393748 1.05815738 55.31393748 1.05815738 59.93798828 -0.76345825 C65.46924546 -1.8580948 70.98196579 -1.37028945 76.5625 -0.9375 C78.25556296 -0.86215554 79.94894887 -0.79373194 81.64257812 -0.73242188 C85.76976517 -0.56802756 89.88130035 -0.3100712 94 0 C93.35905527 3.17558979 92.24620275 5.55058143 90.5859375 8.32421875 C90.07885254 9.1764502 89.57176758 10.02868164 89.04931641 10.90673828 C88.49679199 11.82438965 87.94426758 12.74204102 87.375 13.6875 C86.8082959 14.64124512 86.2415918 15.59499023 85.65771484 16.57763672 C82.75299902 21.45563493 79.8161112 26.31230547 76.83248901 31.14234924 C75.77608521 32.85414405 74.72456149 34.56884484 73.67431641 36.28442383 C72.32279593 38.48752779 70.96069416 40.68418019 69.58740234 42.8737793 C68.9733252 43.87707275 68.35924805 44.88036621 67.7265625 45.9140625 C67.17564941 46.8004541 66.62473633 47.6868457 66.05712891 48.60009766 C64.84370136 50.85959363 64.84370136 50.85959363 65.11523438 52.93652344 C66.34338021 55.80084148 67.84543301 58.41678617 69.4296875 61.1015625 C69.77629929 61.69159561 70.12291107 62.28162872 70.48002625 62.88954163 C71.60678731 64.80429684 72.74079414 66.71464706 73.875 68.625 C74.64868657 69.93706106 75.42204154 71.24931771 76.19506836 72.56176758 C81.01664072 80.73208107 85.90017682 88.86359458 90.95068359 96.89501953 C94 101.7900064 94 101.7900064 94 104 C63.14242222 107.47697866 63.14242222 107.47697866 55.1640625 102.08251953 C50.77251936 97.03043522 48.39749833 91.09462739 46.12207031 84.86083984 C44.47399109 80.65888328 42.13891937 77.02057307 39.6875 73.25 C36 67.32552579 36 67.32552579 36 65 C33.69 65 31.38 65 29 65 C29 77.87 29 90.74 29 104 C19.43 104 9.86 104 0 104 C0 69.68 0 35.36 0 0 Z " fill="#000000" transform="translate(1239,230)"/>
<path d="M0 0 C13.86 0 27.72 0 42 0 C49.72136044 23.52743947 57.27906818 47.09836626 64.66238022 70.73340225 C65.31360021 72.81601849 65.96646791 74.89811168 66.61978149 76.98007202 C67.85209198 80.9082475 69.07692466 84.83871354 70.30078125 88.76953125 C70.86236938 90.55757675 70.86236938 90.55757675 71.43530273 92.38174438 C71.77416504 93.47498016 72.11302734 94.56821594 72.4621582 95.69458008 C72.7604805 96.6509285 73.0588028 97.60727692 73.36616516 98.59260559 C74 101 74 101 74 104 C64.1 104 54.2 104 44 104 C40.47058824 94.58823529 40.47058824 94.58823529 39.3125 91.1875 C39.06113281 90.45917969 38.80976562 89.73085938 38.55078125 88.98046875 C38 87 38 87 38 84 C26.78 84 15.56 84 4 84 C3.34 87.3 2.68 90.6 2 94 C0.02 98.95 0.02 98.95 -2 104 C-11.9 104 -21.8 104 -32 104 C-29.75010612 93.87547752 -29.75010612 93.87547752 -28.20336914 89.02587891 C-27.68574005 87.39282303 -27.68574005 87.39282303 -27.15765381 85.72677612 C-26.78722961 84.57170563 -26.41680542 83.41663513 -26.03515625 82.2265625 C-25.43837486 80.34890818 -24.84159399 78.4712537 -24.24483681 76.59359169 C-23.61624892 74.61835737 -22.98575289 72.64374196 -22.35464478 70.66931152 C-21.05646264 66.60788903 -19.76342374 62.54484178 -18.47143555 58.48144531 C-17.18431113 54.43397044 -15.89699699 50.38655746 -14.60786438 46.33972168 C-11.15022196 35.48455379 -7.72169192 24.62047059 -4.3125 13.75 C-2.889375 9.2125 -1.46625 4.675 0 0 Z M21 33 C15.3086739 45.61063991 15.3086739 45.61063991 13 59 C18.61 59 24.22 59 30 59 C27.36 50.42 24.72 41.84 22 33 C21.67 33 21.34 33 21 33 Z " fill="#000000" transform="translate(949,399)"/>
<path d="M0 0 C13.53 0 27.06 0 41 0 C44.37539586 9.00105562 44.37539586 9.00105562 45.80249023 13.44580078 C46.12429764 14.44496521 46.44610504 15.44412964 46.77766418 16.47357178 C47.11787094 17.53674622 47.4580777 18.59992065 47.80859375 19.6953125 C48.3535273 21.39062103 48.3535273 21.39062103 48.9094696 23.12017822 C50.08761376 26.78777121 51.26275075 30.45631832 52.4375 34.125 C53.24654949 36.64795965 54.05563171 39.17090881 54.86474609 41.69384766 C57.24747956 49.12785437 59.62482794 56.56357435 62 64 C62.34206482 65.07064697 62.68412964 66.14129395 63.03656006 67.24438477 C64.8123351 72.80439002 66.58427037 78.36558737 68.34890747 83.92913818 C68.86468717 85.55462205 69.38134438 87.17982774 69.89889526 88.80474854 C70.60478015 91.02256858 71.30692049 93.24153537 72.0078125 95.4609375 C72.39598145 96.68603027 72.78415039 97.91112305 73.18408203 99.17333984 C74 102 74 102 74 104 C63.77 104 53.54 104 43 104 C42.01 101.07125 41.02 98.1425 40 95.125 C39.68675781 94.20348145 39.37351562 93.28196289 39.05078125 92.33251953 C38.80714844 91.60661621 38.56351563 90.88071289 38.3125 90.1328125 C38.06113281 89.38918457 37.80976562 88.64555664 37.55078125 87.87939453 C37 86 37 86 37 84 C26.11 84 15.22 84 4 84 C3.01 87.63 2.02 91.26 1 95 C0.01 97.97 -0.98 100.94 -2 104 C-12.23 104 -22.46 104 -33 104 C-28.31687728 88.18196482 -23.3869158 72.44819504 -18.38696289 56.72827148 C-17.28464537 53.26250961 -16.1851331 49.79586524 -15.08637428 46.32897377 C-10.17764346 30.84479795 -5.18338227 15.39499795 0 0 Z M20 32 C18.66441063 36.31180463 17.33190546 40.62455613 16 44.9375 C15.6184375 46.16919922 15.236875 47.40089844 14.84375 48.66992188 C14.4828125 49.83974609 14.121875 51.00957031 13.75 52.21484375 C13.41484375 53.29886475 13.0796875 54.38288574 12.734375 55.49975586 C11.95303061 57.72560072 11.95303061 57.72560072 12 59 C17.61 59 23.22 59 29 59 C26.60113332 49.90955784 23.84376987 40.9584371 21 32 C20.67 32 20.34 32 20 32 Z " fill="#000000" transform="translate(1046,230)"/>
<path d="M0 0 C10.23 0 20.46 0 31 0 C38.43723912 22.96794433 45.75344983 45.97128166 53 69 C55.10168416 65.84747375 56.0147689 63.20630319 57.15478516 59.60083008 C57.35990219 58.95665634 57.56501923 58.3124826 57.77635193 57.64878845 C58.45176689 55.5237706 59.12043541 53.39669365 59.7890625 51.26953125 C60.25661494 49.79395131 60.72458734 48.31850438 61.19296265 46.84318542 C62.42355303 42.96308078 63.64843031 39.08119559 64.87213135 35.19891357 C66.34211198 30.53942653 67.81917017 25.88217896 69.29504395 21.22455597 C71.53545963 14.15140591 73.76685937 7.07546888 76 0 C86.23 0 96.46 0 107 0 C103.62542572 12.37343903 103.62542572 12.37343903 101.96630859 17.57177734 C101.59516937 18.73865082 101.22403015 19.90552429 100.84164429 21.10775757 C100.25100693 22.95320663 100.25100693 22.95320663 99.6484375 24.8359375 C99.22565169 26.16314517 98.80310077 27.49042769 98.38076782 28.81777954 C97.27156031 32.30225245 96.15984224 35.78591851 95.04736328 39.26934814 C93.29510853 44.75691502 91.54585786 50.24543927 89.79792023 55.73438263 C89.36575681 57.09116224 88.93335922 58.44786728 88.50072479 59.80449677 C86.09494667 67.34979238 83.71202353 74.9013143 81.37988281 82.46972656 C81.17025972 83.1493149 80.96063663 83.82890324 80.74466133 84.52908516 C79.74515842 87.77153402 78.74982216 91.01513339 77.76010132 94.2605896 C77.41081573 95.39743195 77.06153015 96.53427429 76.70166016 97.70556641 C76.24299057 99.20864853 76.24299057 99.20864853 75.77505493 100.74209595 C75 103 75 103 74 104 C70.97022196 104.08871273 67.96332978 104.1151935 64.93359375 104.09765625 C64.02497086 104.0962413 63.11634796 104.09482635 62.18019104 104.09336853 C59.26592779 104.08775193 56.35174019 104.07519665 53.4375 104.0625 C51.46679798 104.05748714 49.49609476 104.05292386 47.52539062 104.04882812 C42.68356441 104.03777711 37.84179505 104.02050138 33 104 C29.94754719 96.21196031 27.45960829 88.24369823 24.921875 80.27734375 C24.42739705 78.72957761 23.93278584 77.18185404 23.43804932 75.63417053 C22.40126253 72.38925324 21.36588191 69.14389172 20.33154297 65.89819336 C19.02854807 61.80974165 17.72240652 57.7223039 16.41529083 53.63516808 C11.79832657 39.19556378 7.18600975 24.7551635 2.765625 10.25390625 C2.47685486 9.30716537 2.18808472 8.3604245 1.89056396 7.38499451 C0 1.13205317 0 1.13205317 0 0 Z " fill="#000000" transform="translate(1016,399)"/>
<path d="M0 0 C10.23 0 20.46 0 31 0 C31 53.13 31 106.26 31 161 C20.77 161 10.54 161 0 161 C0 107.87 0 54.74 0 0 Z " fill="#000000" transform="translate(635,352)"/>
<path d="M0 0 C10.23 0 20.46 0 31 0 C31 53.13 31 106.26 31 161 C20.77 161 10.54 161 0 161 C0 107.87 0 54.74 0 0 Z " fill="#000000" transform="translate(548,352)"/>
<path d="M0 0 C29.37 0 58.74 0 89 0 C89 8.25 89 16.5 89 25 C79.1 25 69.2 25 59 25 C59 51.07 59 77.14 59 104 C49.43 104 39.86 104 30 104 C30 77.93 30 51.86 30 25 C20.1 25 10.2 25 0 25 C0 16.75 0 8.5 0 0 Z " fill="#000000" transform="translate(927,230)"/>
<path d="M0 0 C10.23 0 20.46 0 31 0 C31 32.67 31 65.34 31 99 C20.77 99 10.54 99 0 99 C0 66.33 0 33.66 0 0 Z " fill="#000000" transform="translate(635,216)"/>
<path d="M0 0 C10.23 0 20.46 0 31 0 C31 32.67 31 65.34 31 99 C20.77 99 10.54 99 0 99 C0 66.33 0 33.66 0 0 Z " fill="#000000" transform="translate(548,216)"/>
<path d="M0 0 C7.86742144 -0.27493677 15.71688471 -0.53482654 23.58494568 -0.67275238 C27.25034684 -0.74064409 30.91166471 -0.83082575 34.57470703 -0.98071289 C52.75138992 -1.70487288 66.54757761 -0.96850557 81.07507324 11.38174438 C83.92354834 13.77641255 86.94996872 15.87063372 90 18 C87.17718331 21.00692236 84.32519579 23.23383623 80.83203125 25.41796875 C79.36926758 26.33932617 79.36926758 26.33932617 77.87695312 27.27929688 C76.86568359 27.90900391 75.85441406 28.53871094 74.8125 29.1875 C72.79754466 30.45081478 70.78318806 31.71508521 68.76953125 32.98046875 C67.87854736 33.53629639 66.98756348 34.09212402 66.06958008 34.66479492 C64.09219677 35.83752306 64.09219677 35.83752306 63 37 C61.03630847 37.0940067 59.06920801 37.11743381 57.10327148 37.11352539 C55.84203964 37.11344986 54.5808078 37.11337433 53.28135681 37.11329651 C51.89460206 37.1081891 50.50784771 37.10297309 49.12109375 37.09765625 C47.71004791 37.09579201 46.29900143 37.09436814 44.88795471 37.09336853 C41.16759465 37.08954379 37.4472734 37.0797139 33.72692871 37.06866455 C29.26660209 37.05665461 24.80626252 37.05204798 20.34592438 37.04621124 C13.56392256 37.0365021 6.78200597 37.01734528 0 37 C0 24.79 0 12.58 0 0 Z " fill="#DDB656" transform="translate(666,315)"/>
<path d="M0 0 C10.23 0 20.46 0 31 0 C31 12.21 31 24.42 31 37 C20.77 37 10.54 37 0 37 C0 24.79 0 12.58 0 0 Z " fill="#E0BF7B" transform="translate(635,315)"/>
<path d="M0 0 C10.23 0 20.46 0 31 0 C30.67 11.88 30.34 23.76 30 36 C20.1 36 10.2 36 0 36 C0 24.12 0 12.24 0 0 Z " fill="#E2C27C" transform="translate(548,315)"/>
</svg>
